<svg width="74" height="31" viewBox="0 0 74 31" fill="none" xmlns="http://www.w3.org/2000/svg">
<path d="M25.8145 15.9252V21.5065C22.7455 21.5065 21.1633 21.2275 19.3029 18.7159C17.4424 16.2043 16.2404 15.9251 14.6517 15.9251V21.5065H9.07031V15.9251H14.6517V10.3438C17.5153 10.3437 19.3029 10.7158 21.1633 13.1345C23.0238 15.5531 24.0048 15.9252 25.8145 15.9252V10.3438H31.3959V15.9252H25.8145Z" fill="black"/>
<path d="M40.2168 12.7823V19.3491H39.1586L36.0644 14.8761H36.0099V19.3491H34.8203V12.7823H35.8849L38.9759 17.2585H39.0336V12.7823H40.2168Z" fill="black"/>
<path d="M41.4617 19.3491V14.424H42.6224V19.3491H41.4617ZM42.0453 13.725C41.8614 13.725 41.7032 13.6641 41.5707 13.5422C41.4382 13.4182 41.3719 13.2697 41.3719 13.0965C41.3719 12.9212 41.4382 12.7727 41.5707 12.6508C41.7032 12.5268 41.8614 12.4648 42.0453 12.4648C42.2312 12.4648 42.3894 12.5268 42.5198 12.6508C42.6524 12.7727 42.7186 12.9212 42.7186 13.0965C42.7186 13.2697 42.6524 13.4182 42.5198 13.5422C42.3894 13.6641 42.2312 13.725 42.0453 13.725Z" fill="black"/>
<path d="M43.816 19.3491V14.424H44.9255V15.2609H44.9832C45.0858 14.9787 45.2557 14.7585 45.493 14.6003C45.7303 14.44 46.0135 14.3599 46.3427 14.3599C46.6762 14.3599 46.9573 14.4411 47.186 14.6036C47.4169 14.7639 47.5793 14.983 47.6734 15.2609H47.7247C47.8337 14.9873 48.0176 14.7692 48.2762 14.6068C48.537 14.4422 48.8459 14.3599 49.2029 14.3599C49.6561 14.3599 50.0259 14.5031 50.3123 14.7895C50.5988 15.076 50.742 15.4939 50.742 16.0433V19.3491H49.578V16.2228C49.578 15.9171 49.4968 15.6937 49.3343 15.5527C49.1719 15.4094 48.9731 15.3378 48.7379 15.3378C48.4579 15.3378 48.2388 15.4255 48.0806 15.6008C47.9246 15.7739 47.8465 15.9994 47.8465 16.2773V19.3491H46.7083V16.1747C46.7083 15.9203 46.6313 15.7173 46.4774 15.5655C46.3256 15.4137 46.1268 15.3378 45.881 15.3378C45.7143 15.3378 45.5625 15.3806 45.4257 15.4661C45.2889 15.5495 45.1798 15.6681 45.0986 15.822C45.0174 15.9738 44.9768 16.1512 44.9768 16.3543V19.3491H43.816Z" fill="black"/>
<path d="M51.9709 19.3491V12.7823H53.1316V15.2384H53.1797C53.2395 15.1187 53.324 14.9915 53.433 14.8569C53.542 14.7201 53.6895 14.6036 53.8755 14.5074C54.0615 14.409 54.2987 14.3599 54.5873 14.3599C54.9678 14.3599 55.3109 14.4571 55.6166 14.6516C55.9244 14.844 56.1681 15.1294 56.3477 15.5078C56.5294 15.884 56.6202 16.3457 56.6202 16.893C56.6202 17.4338 56.5315 17.8934 56.3541 18.2717C56.1767 18.6501 55.9351 18.9387 55.6294 19.1375C55.3237 19.3363 54.9774 19.4357 54.5905 19.4357C54.3084 19.4357 54.0743 19.3887 53.8883 19.2946C53.7023 19.2005 53.5527 19.0872 53.4394 18.9547C53.3283 18.82 53.2417 18.6929 53.1797 18.5731H53.1123V19.3491H51.9709ZM53.1091 16.8865C53.1091 17.2051 53.154 17.484 53.2438 17.7234C53.3357 17.9628 53.4672 18.1499 53.6382 18.2846C53.8114 18.4171 54.0208 18.4834 54.2667 18.4834C54.5232 18.4834 54.738 18.415 54.9112 18.2782C55.0843 18.1392 55.2147 17.95 55.3024 17.7106C55.3921 17.4691 55.437 17.1944 55.437 16.8865C55.437 16.5809 55.3932 16.3094 55.3056 16.0721C55.2179 15.8348 55.0875 15.6489 54.9144 15.5142C54.7412 15.3795 54.5253 15.3122 54.2667 15.3122C54.0187 15.3122 53.8082 15.3774 53.635 15.5078C53.4619 15.6382 53.3304 15.8209 53.2406 16.0561C53.153 16.2912 53.1091 16.568 53.1091 16.8865Z" fill="black"/>
<path d="M60.7461 17.2777V14.424H61.9069V19.3491H60.7814V18.4737H60.7301C60.6189 18.7495 60.4362 18.975 60.1818 19.1503C59.9295 19.3256 59.6185 19.4132 59.2487 19.4132C58.9259 19.4132 58.6406 19.3416 58.3926 19.1984C58.1468 19.053 57.9544 18.8425 57.8154 18.5667C57.6765 18.2888 57.607 17.9532 57.607 17.5599V14.424H58.7677V17.3803C58.7677 17.6924 58.8532 17.9404 59.0243 18.1242C59.1953 18.3081 59.4197 18.4 59.6976 18.4C59.8686 18.4 60.0343 18.3583 60.1946 18.2749C60.3549 18.1916 60.4864 18.0676 60.589 17.903C60.6938 17.7363 60.7461 17.5278 60.7461 17.2777Z" fill="black"/>
<path d="M66.9931 15.7258L65.935 15.8412C65.905 15.7344 65.8527 15.6339 65.7779 15.5398C65.7052 15.4458 65.6068 15.3699 65.4829 15.3122C65.3589 15.2545 65.2071 15.2256 65.0275 15.2256C64.786 15.2256 64.5829 15.278 64.4183 15.3827C64.2559 15.4875 64.1757 15.6232 64.1778 15.7899C64.1757 15.9332 64.2281 16.0497 64.335 16.1394C64.444 16.2292 64.6235 16.303 64.8736 16.3607L65.7137 16.5403C66.1797 16.6407 66.526 16.8 66.7526 17.018C66.9813 17.2361 67.0968 17.5214 67.0989 17.8741C67.0968 18.1841 67.0059 18.4577 66.8264 18.695C66.6489 18.9301 66.402 19.114 66.0857 19.2465C65.7693 19.379 65.4059 19.4453 64.9955 19.4453C64.3927 19.4453 63.9074 19.3192 63.5397 19.0669C63.1721 18.8126 62.953 18.4588 62.8824 18.0056L64.0143 17.8966C64.0656 18.1189 64.1746 18.2867 64.3414 18.4C64.5081 18.5133 64.7251 18.5699 64.9923 18.5699C65.268 18.5699 65.4893 18.5133 65.656 18.4C65.8249 18.2867 65.9093 18.1467 65.9093 17.98C65.9093 17.8389 65.8548 17.7224 65.7458 17.6304C65.6389 17.5385 65.4722 17.468 65.2456 17.4188L64.4055 17.2425C63.9331 17.1441 63.5836 16.9785 63.357 16.7455C63.1304 16.5103 63.0182 16.2132 63.0203 15.8541C63.0182 15.5505 63.1005 15.2876 63.2672 15.0653C63.4361 14.8408 63.6701 14.6677 63.9694 14.5458C64.2708 14.4219 64.6182 14.3599 65.0115 14.3599C65.5887 14.3599 66.0429 14.4828 66.3743 14.7286C66.7077 14.9744 66.914 15.3068 66.9931 15.7258Z" fill="black"/>
</svg>
