<svg width="114" height="40" viewBox="0 0 114 40" fill="none" xmlns="http://www.w3.org/2000/svg">
    <path fill-rule="evenodd" clip-rule="evenodd" d="M81.7288 13H83.2747V17.7084C83.6222 17.255 84.0374 16.9105 84.5203 16.6749C85.0032 16.4334 85.5274 16.3127 86.0927 16.3127C87.2706 16.3127 88.2246 16.7191 88.9549 17.5318C89.691 18.3386 90.0591 19.5312 90.0591 21.1095C90.0591 22.6053 89.6969 23.848 88.9726 24.8374C88.2482 25.8268 87.2441 26.3214 85.9602 26.3214C85.2417 26.3214 84.6351 26.1477 84.1404 25.8002C83.846 25.5941 83.5309 25.2643 83.1952 24.8109V26.0211H81.7288V13ZM85.863 24.9169C86.7229 24.9169 87.3648 24.5753 87.7888 23.8921C88.2187 23.209 88.4337 22.3079 88.4337 21.189C88.4337 20.1937 88.2187 19.3692 87.7888 18.7155C87.3648 18.0618 86.7376 17.7349 85.9072 17.7349C85.1828 17.7349 84.5468 18.0029 83.9991 18.5388C83.4573 19.0747 83.1864 19.9581 83.1864 21.189C83.1864 22.0783 83.2983 22.7997 83.5221 23.3533C83.9402 24.3957 84.7205 24.9169 85.863 24.9169ZM34.2134 19.7931V26.4137C27.4361 26.4137 24.6907 24.6238 22.0549 22.9052C19.6216 21.3187 17.2816 19.7931 11.9489 19.793V13.1724C18.6596 13.1724 21.3978 14.9527 24.0344 16.6669C26.4823 18.2585 28.8426 19.7931 34.2134 19.7931ZM34.2134 19.7931V13.1724H39.7794V19.7931H34.2134ZM6.38283 19.793C6.38283 19.793 0.839925 19.7929 11.9489 19.793V26.4137H6.38283V19.793ZM102.939 23.0529C102.986 23.5829 103.119 23.9893 103.336 24.2719C103.737 24.7843 104.432 25.0405 105.421 25.0405C106.01 25.0405 106.528 24.9139 106.976 24.6606C107.424 24.4015 107.647 24.004 107.647 23.4681C107.647 23.0617 107.468 22.7525 107.108 22.5405C106.879 22.4109 106.425 22.2608 105.748 22.09L104.485 21.772C103.678 21.5717 103.083 21.3479 102.7 21.1006C102.017 20.6707 101.676 20.0759 101.676 19.3162C101.676 18.421 101.997 17.6966 102.639 17.143C103.286 16.5894 104.155 16.3126 105.245 16.3126C106.67 16.3126 107.697 16.7308 108.328 17.5671C108.722 18.0971 108.914 18.6683 108.902 19.2808H107.4C107.371 18.9216 107.244 18.5947 107.02 18.3003C106.655 17.8821 106.022 17.6731 105.121 17.6731C104.52 17.6731 104.064 17.7879 103.752 18.0176C103.445 18.2473 103.292 18.5506 103.292 18.9275C103.292 19.3397 103.495 19.6695 103.902 19.9169C104.137 20.0641 104.485 20.1936 104.944 20.3055L105.995 20.5617C107.138 20.8385 107.904 21.1065 108.292 21.3656C108.911 21.772 109.22 22.4109 109.22 23.2826C109.22 24.1247 108.899 24.852 108.257 25.4645C107.621 26.077 106.649 26.3832 105.342 26.3832C103.934 26.3832 102.936 26.0652 102.347 25.4292C101.764 24.7873 101.452 23.9951 101.411 23.0529H102.939ZM93.5132 22.8408V16.56H91.8878V22.991C91.8878 23.7978 92.0203 24.4427 92.2853 24.9256C92.7741 25.8267 93.6928 26.2772 95.0415 26.2772C95.9072 26.2772 96.6433 26.0298 97.2499 25.5352C97.5562 25.2878 97.8124 24.9845 98.0185 24.6253L98.0008 26.021H99.5026V16.56H97.9125V21.2066C97.9125 22.1312 97.8035 22.8585 97.5856 23.3885C97.1852 24.3779 96.4313 24.8726 95.3242 24.8726C94.5527 24.8726 94.0256 24.5899 93.7429 24.0246C93.5898 23.7183 93.5132 23.3237 93.5132 22.8408ZM68.3544 16.5598H66.7819V26.0209H68.372V21.0033C68.372 19.7842 68.6164 18.942 69.1052 18.4768C69.5999 18.0115 70.1476 17.7789 70.7483 17.7789C71.4079 17.7789 71.8585 17.9998 72.0999 18.4415C72.253 18.7359 72.3296 19.2041 72.3296 19.846V26.0209H73.9462V20.5174C73.9462 19.5398 74.17 18.8419 74.6176 18.4238C75.071 18.0057 75.6099 17.7966 76.2342 17.7966C76.6876 17.7966 77.0704 17.9144 77.3826 18.1499C77.7006 18.3855 77.8596 18.8184 77.8596 19.4485V26.0209H79.5115V19.7224C79.5115 18.8861 79.3878 18.2206 79.1405 17.7259C78.6811 16.8072 77.8154 16.3478 76.5433 16.3478C75.9485 16.3478 75.4126 16.4715 74.9356 16.7189C74.4586 16.9603 74.0434 17.3343 73.69 17.8408C73.478 17.4285 73.2424 17.1164 72.9833 16.9044C72.5239 16.5333 71.9174 16.3478 71.1635 16.3478C70.498 16.3478 69.9032 16.5275 69.3791 16.8867C69.0729 17.0987 68.7313 17.4373 68.3544 17.9026V16.5598ZM62.7537 16.6043H64.3703V26.0212H62.7537V16.6043ZM62.7537 13.0442H64.3703V14.8463H62.7537V13.0442ZM51.9676 13.0442H49.8916V26.0212H51.57V15.5177L58.2219 26.0212H60.1919V13.0442H58.5223V23.5565L51.9676 13.0442Z" fill="white"/>
    </svg>
    