<svg width="90" height="40" viewBox="0 0 90 40" fill="none" xmlns="http://www.w3.org/2000/svg">
<g clip-path="url(#clip0_4589_5677)">
<path d="M19.2888 19.9296V26.3592C15.7534 26.3592 13.9308 26.0378 11.7876 23.1445C9.6444 20.2511 8.25978 19.9296 6.4296 19.9296V26.3592H0V19.9296H6.4296V13.5C9.72834 13.5 11.7876 13.9287 13.9308 16.7148C16.074 19.501 17.2041 19.9296 19.2888 19.9296V13.5H25.7184V19.9296H19.2888Z" fill="black"/>
<path d="M41.3333 14.5V26.5H39.5033L34.1516 18.3261H34.0573V26.5H32V14.5H33.8414L39.1875 22.6796H39.2875V14.5H41.3333Z" fill="black"/>
<path d="M44.1784 26.5V17.915H46.4763V26.5H44.1784ZM45.3333 16.6966C44.97 16.6966 44.6561 16.5904 44.3944 16.378C44.1318 16.1619 44 15.9029 44 15.6011C44 15.2956 44.1318 15.0366 44.3944 14.8242C44.6561 14.608 44.97 14.5 45.3333 14.5C45.7021 14.5 46.0151 14.608 46.2732 14.8242C46.5358 15.0366 46.6667 15.2956 46.6667 15.6011C46.6667 15.9029 46.5358 16.1619 46.2732 16.378C46.0151 16.5904 45.7021 16.6966 45.3333 16.6966Z" fill="black"/>
<path d="M48 26.5V17.2866H49.9221V18.8522H50.0222C50.1999 18.3243 50.4947 17.9124 50.9055 17.6165C51.3163 17.3166 51.8073 17.1666 52.3775 17.1666C52.9557 17.1666 53.4426 17.3186 53.839 17.6225C54.2387 17.9225 54.5206 18.3323 54.6831 18.8522H54.772C54.961 18.3403 55.2798 17.9324 55.7274 17.6285C56.1799 17.3206 56.7149 17.1666 57.3332 17.1666C58.118 17.1666 58.7595 17.4346 59.2552 17.9704C59.7517 18.5062 60 19.288 60 20.3158V26.5H57.9834V20.6516C57.9834 20.0798 57.8425 19.6619 57.5606 19.398C57.2795 19.1301 56.9351 18.9961 56.5275 18.9961C56.0422 18.9961 55.6626 19.1601 55.3887 19.488C55.1188 19.8119 54.9834 20.2338 54.9834 20.7536V26.5H53.0109V20.5617C53.0109 20.0858 52.878 19.7059 52.6113 19.422C52.3478 19.138 52.0035 18.9961 51.5774 18.9961C51.2891 18.9961 51.0256 19.076 50.7886 19.236C50.5515 19.392 50.3633 19.614 50.2224 19.9018C50.0814 20.1858 50.0109 20.5177 50.0109 20.8975V26.5H48Z" fill="black"/>
<path d="M62.6665 26.3439V14.5H64.6635V18.9298H64.747C64.8496 18.7139 64.9952 18.4846 65.1829 18.2416C65.3698 17.9949 65.6235 17.7848 65.944 17.6113C66.2637 17.434 66.6717 17.3453 67.1687 17.3453C67.8233 17.3453 68.4134 17.5207 68.9399 17.8716C69.4688 18.2185 69.8887 18.7333 70.1973 19.4156C70.5098 20.0942 70.6665 20.9269 70.6665 21.9139C70.6665 22.8894 70.5138 23.7183 70.2084 24.4007C69.903 25.0831 69.4879 25.6036 68.9614 25.9621C68.4357 26.3207 67.84 26.5 67.1743 26.5C66.6884 26.5 66.2859 26.4151 65.9662 26.2455C65.6457 26.0759 65.388 25.8716 65.1932 25.6325C65.0023 25.3896 64.8536 25.1602 64.747 24.9444H64.6309V26.3439H62.6665ZM64.6253 21.9024C64.6253 22.4768 64.7025 22.9799 64.8568 23.4118C65.015 23.8436 65.2417 24.181 65.5352 24.4238C65.8334 24.6629 66.1937 24.7824 66.6168 24.7824C67.0582 24.7824 67.428 24.659 67.7255 24.4123C68.0237 24.1617 68.248 23.8205 68.3991 23.3886C68.5534 22.953 68.6305 22.4576 68.6305 21.9024C68.6305 21.351 68.555 20.8614 68.4047 20.4335C68.2535 20.0055 68.0293 19.6701 67.731 19.4272C67.4336 19.1843 67.0622 19.0629 66.6168 19.0629C66.1905 19.0629 65.8279 19.1804 65.5304 19.4156C65.2322 19.6508 65.0063 19.9804 64.8512 20.4045C64.7009 20.8286 64.6253 21.3279 64.6253 21.9024Z" fill="black"/>
<path d="M78.2006 22.5052V17.1666H80.0002V26.38H78.255V24.7425H78.1755C78.0035 25.2583 77.7197 25.6802 77.3255 26.0081C76.9342 26.336 76.4518 26.5 75.8785 26.5C75.3782 26.5 74.936 26.366 74.5511 26.0981C74.1699 25.8262 73.8717 25.4322 73.656 24.9164C73.441 24.3966 73.3335 23.7687 73.3335 23.033V17.1666H75.1331V22.697C75.1331 23.2809 75.2657 23.7448 75.5309 24.0887C75.796 24.4326 76.1436 24.6045 76.5744 24.6045C76.8395 24.6045 77.0968 24.5266 77.3455 24.3706C77.5935 24.2147 77.7978 23.9827 77.9569 23.6747C78.1188 23.3628 78.2006 22.973 78.2006 22.5052Z" fill="black"/>
<path d="M89.1665 19.6736L87.4929 19.8854C87.4462 19.6892 87.3628 19.5049 87.2444 19.3323C87.1297 19.1596 86.9748 19.0203 86.7782 18.9145C86.5823 18.8085 86.3426 18.7556 86.0583 18.7556C85.6768 18.7556 85.3552 18.8517 85.0951 19.0439C84.8385 19.2361 84.7114 19.4852 84.715 19.7913C84.7114 20.0541 84.7947 20.2679 84.9635 20.4327C85.136 20.5975 85.4196 20.7329 85.8149 20.8387L87.1436 21.1683C87.8803 21.3527 88.4277 21.645 88.7858 22.0452C89.1475 22.4453 89.3302 22.9691 89.3332 23.6164C89.3302 24.1853 89.1863 24.6874 88.9027 25.1229C88.6221 25.5545 88.2318 25.8919 87.7312 26.1351C87.2313 26.3783 86.6569 26.5 86.0079 26.5C85.0549 26.5 84.2875 26.2684 83.7065 25.8055C83.1247 25.3387 82.7783 24.6894 82.6665 23.8576L84.4563 23.6576C84.5374 24.0656 84.7099 24.3736 84.9738 24.5815C85.2369 24.7895 85.5803 24.8934 86.0028 24.8934C86.4391 24.8934 86.7884 24.7895 87.0522 24.5815C87.319 24.3736 87.4527 24.1166 87.4527 23.8106C87.4527 23.5516 87.3665 23.3379 87.194 23.1691C87.0252 23.0005 86.7614 22.8709 86.4033 22.7808L85.0746 22.4571C84.3277 22.2766 83.7752 21.9725 83.4171 21.5449C83.059 21.1133 82.8814 20.568 82.885 19.909C82.8814 19.3519 83.0115 18.8693 83.2753 18.4613C83.542 18.0493 83.9126 17.7315 84.3854 17.5079C84.8619 17.2804 85.4115 17.1666 86.0335 17.1666C86.9455 17.1666 87.6639 17.3922 88.188 17.8433C88.7149 18.2946 89.0408 18.9046 89.1665 19.6736Z" fill="black"/>
</g>
<defs>
<clipPath id="clip0_4589_5677">
<rect width="89.3333" height="40" fill="white"/>
</clipPath>
</defs>
</svg>
