<svg width="244" height="238" viewBox="0 0 244 238" fill="none" xmlns="http://www.w3.org/2000/svg">
<circle opacity="0.2" cx="159.5" cy="78.5" r="65.5" fill="#FF9C00"/>
<circle cx="196" cy="181" r="16" fill="#FF9C00"/>
<circle cx="77" cy="16" r="16" fill="#FF9C00"/>
<circle cx="199.5" cy="46.5" r="24.5" fill="#FF9C00"/>
<circle opacity="0.5" cx="51" cy="111" r="14" fill="#FF9C00"/>
<circle cx="41" cy="79" r="8" fill="#FF9C00"/>
<circle cx="22" cy="97" r="6" fill="#FF9C00"/>
<circle cx="121" cy="180" r="6" fill="#FF9C00"/>
<circle opacity="0.2" cx="49" cy="189" r="49" fill="#FF9C00"/>
<circle cx="169" cy="217" r="6" fill="#FF9C00"/>
<circle opacity="0.5" cx="226" cy="77" r="6" fill="#FF9C00"/>
<circle opacity="0.5" cx="71" cy="211" r="6" fill="#FF9C00"/>
<circle cx="156" cy="182" r="4" fill="#FF9C00"/>
<circle cx="216" cy="91" r="4" fill="#FF9C00"/>
<circle cx="61" cy="194" r="4" fill="#FF9C00"/>
<circle opacity="0.5" cx="65" cy="223" r="4" fill="#FF9C00"/>
<circle cx="148" cy="210" r="4" fill="#FF9C00"/>
<circle cx="81" cy="202" r="4" fill="#FF9C00"/>
<circle opacity="0.5" cx="37" cy="169" r="4" fill="#FF9C00"/>
<circle cx="98" cy="140" r="9" fill="#FF9C00"/>
<circle opacity="0.5" cx="203" cy="106" r="9" fill="#FF9C00"/>
<circle cx="235" cy="96" r="9" fill="#FF9C00"/>
<circle opacity="0.5" cx="140" cy="194" r="8" fill="#FF9C00"/>
</svg>
