<svg width="32" height="32" viewBox="0 0 32 32" fill="none" xmlns="http://www.w3.org/2000/svg">
<path d="M24.3333 8C28.5675 8 32 11.377 32 15.5428V28.7428C32 29.2361 31.7068 29.6838 31.2504 29.8876C30.7937 30.0914 30.258 30.0138 29.8809 29.6889L26.2151 26.5332C25.5163 25.9316 24.6191 25.6 23.6907 25.6H15.3889C11.8603 25.6 9 22.7858 9 19.3143V14.2857C9 10.8141 11.8603 8 15.3889 8H24.3333Z" fill="#A8B6F0"/>
<path d="M7.66667 0C3.43247 0 0 3.37703 0 7.54285V20.7428C0 21.2361 0.29324 21.6838 0.749634 21.8876C1.20634 22.0914 1.74197 22.0138 2.11913 21.6889L5.78494 18.5332C6.48372 17.9316 7.38091 17.6 8.3093 17.6H16.6111C20.1397 17.6 23 14.7858 23 11.3143V6.28571C23 2.81414 20.1397 0 16.6111 0H7.66667Z" fill="#4360DF"/>
<circle cx="15" cy="9" r="2" fill="white"/>
<circle cx="8" cy="9" r="2" fill="white"/>
</svg>
