<svg width="35" height="26" viewBox="0 0 35 26" fill="none" xmlns="http://www.w3.org/2000/svg">
<path d="M0 20.5C0 17.4624 2.46243 15 5.5 15H18.5C21.5376 15 24 17.4624 24 20.5C24 23.5376 21.5376 26 18.5 26H5.5C2.46243 26 0 23.5376 0 20.5Z" fill="white"/>
<mask id="path-2-outside-1" maskUnits="userSpaceOnUse" x="16" y="6" width="19" height="19" fill="black">
<rect fill="white" x="16" y="6" width="19" height="19"/>
<path fill-rule="evenodd" clip-rule="evenodd" d="M24 20.5C24 21.3284 24.6716 22 25.5 22C26.3284 22 27 21.3284 27 20.5V17H30.5C31.3284 17 32 16.3284 32 15.5C32 14.6716 31.3284 14 30.5 14H27V10.5C27 9.67157 26.3284 9 25.5 9C24.6716 9 24 9.67157 24 10.5V14H20.5C19.6716 14 19 14.6716 19 15.5C19 16.3284 19.6716 17 20.5 17H24V20.5Z"/>
</mask>
<path fill-rule="evenodd" clip-rule="evenodd" d="M24 20.5C24 21.3284 24.6716 22 25.5 22C26.3284 22 27 21.3284 27 20.5V17H30.5C31.3284 17 32 16.3284 32 15.5C32 14.6716 31.3284 14 30.5 14H27V10.5C27 9.67157 26.3284 9 25.5 9C24.6716 9 24 9.67157 24 10.5V14H20.5C19.6716 14 19 14.6716 19 15.5C19 16.3284 19.6716 17 20.5 17H24V20.5Z" fill="#7D7F88"/>
<path d="M27 17V14H24V17H27ZM27 14H24V17H27V14ZM24 14V17H27V14H24ZM24 17H27V14H24V17ZM25.5 19C26.3284 19 27 19.6716 27 20.5H21C21 22.9853 23.0147 25 25.5 25V19ZM24 20.5C24 19.6716 24.6716 19 25.5 19V25C27.9853 25 30 22.9853 30 20.5H24ZM24 17V20.5H30V17H24ZM30.5 14H27V20H30.5V14ZM29 15.5C29 14.6716 29.6716 14 30.5 14V20C32.9853 20 35 17.9853 35 15.5H29ZM30.5 17C29.6716 17 29 16.3284 29 15.5H35C35 13.0147 32.9853 11 30.5 11V17ZM27 17H30.5V11H27V17ZM24 10.5V14H30V10.5H24ZM25.5 12C24.6716 12 24 11.3284 24 10.5H30C30 8.01472 27.9853 6 25.5 6V12ZM27 10.5C27 11.3284 26.3284 12 25.5 12V6C23.0147 6 21 8.01472 21 10.5H27ZM27 14V10.5H21V14H27ZM20.5 17H24V11H20.5V17ZM22 15.5C22 16.3284 21.3284 17 20.5 17V11C18.0147 11 16 13.0147 16 15.5H22ZM20.5 14C21.3284 14 22 14.6716 22 15.5H16C16 17.9853 18.0147 20 20.5 20V14ZM24 14H20.5V20H24V14ZM27 20.5V17H21V20.5H27Z" fill="#262A39" mask="url(#path-2-outside-1)"/>
<circle cx="13" cy="5" r="5" fill="white"/>
</svg>
