<svg width="40" height="40" viewBox="0 0 40 40" fill="none" xmlns="http://www.w3.org/2000/svg">
<path fill-rule="evenodd" clip-rule="evenodd" d="M8.74712 2.44701L8.40429 2.77516L8.39865 5.31835C8.38998 9.15543 8.6355 8.90488 4.81962 8.97147C1.14248 9.03566 1.50558 8.65094 1.47019 12.5205C1.43248 16.6323 1.10629 16.3067 5.26268 16.3067C9.19714 16.3067 8.90825 16.5758 8.90886 12.9093C8.90936 9.27222 8.71697 9.45405 12.5631 9.45405C16.1108 9.45405 15.8659 9.7297 15.8659 5.73646C15.8659 1.81251 16.1866 2.11885 12.0781 2.11885H9.08995L8.74712 2.44701ZM24.9171 2.40039L24.5878 2.68193L24.5585 5.73588L24.5292 8.78993L24.8761 9.12194L25.223 9.45405H27.8143C31.6245 9.45405 31.3917 9.23178 31.4315 12.9086C31.4712 16.5785 31.1717 16.3067 35.1752 16.3067C39.2304 16.3067 38.9563 16.5717 38.9563 12.6502C38.9563 8.72159 39.1802 8.97147 35.6614 8.97147C31.8023 8.97147 32.0664 9.22328 31.999 5.47886L31.9485 2.68173L31.6192 2.40029C31.1022 1.95835 25.4341 1.95835 24.9171 2.40039ZM19.7049 11.9356C19.4749 12.0505 19.2023 12.3503 18.8893 12.8321C18.6307 13.2302 18.1324 13.9903 17.7819 14.5211C17.4315 15.052 16.933 15.812 16.6742 16.2102C16.4154 16.6083 15.8009 17.5421 15.3087 18.2852C14.0458 20.1917 13.9013 19.644 16.8513 24.1358C20.4509 29.6171 19.9158 29.6137 23.4824 24.1768C26.5654 19.4771 26.5422 20.5552 23.6551 16.1341C20.7317 11.6574 20.5812 11.4975 19.7049 11.9356ZM2.02728 23.9078C1.47846 24.2334 1.4469 24.4275 1.4473 27.4688C1.4478 31.3496 1.17485 31.0622 4.89232 31.0969C8.6233 31.1319 8.40429 30.9077 8.40429 34.693V37.2699L8.74712 37.598L9.08995 37.9262H12.0292C16.1872 37.9262 15.8911 38.222 15.8461 34.1138C15.8045 30.3198 16.0743 30.591 12.3417 30.591C8.69519 30.591 8.90845 30.8066 8.90845 27.1212C8.90845 24.3465 8.87488 24.166 8.30679 23.8848C7.84115 23.6543 2.42093 23.6741 2.02728 23.9078ZM32.0306 23.9266C31.5092 24.2309 31.4948 24.3116 31.4942 26.9412C31.4934 30.7877 31.6792 30.591 28.0454 30.591C24.2583 30.591 24.5165 30.3057 24.5583 34.444L24.5878 37.3685L24.9369 37.6474C25.286 37.9262 25.286 37.9262 28.2672 37.9262C32.2983 37.9262 31.999 38.2084 31.999 34.408C31.999 31.8488 31.9989 31.8488 32.293 31.5336L32.5869 31.2184L35.3612 31.1701C39.1969 31.1034 38.945 31.3646 38.945 27.4542C38.945 23.5027 39.1832 23.7382 35.1854 23.7388C32.5576 23.7391 32.3286 23.7527 32.0306 23.9266Z" fill="white"/>
</svg>
