<svg width="40" height="40" viewBox="0 0 40 40" fill="none" xmlns="http://www.w3.org/2000/svg">
<path fill-rule="evenodd" clip-rule="evenodd" d="M3.92567 6.64442C3.92567 5.13568 5.14876 3.9126 6.6575 3.9126H33.3424C34.8512 3.9126 36.0743 5.13568 36.0743 6.64442C36.0743 8.15317 34.8512 9.37625 33.3424 9.37625H6.6575C5.14876 9.37625 3.92567 8.15317 3.92567 6.64442ZM3.92567 33.3554C3.92567 31.8467 5.14876 30.6236 6.6575 30.6236H33.3424C34.8512 30.6236 36.0743 31.8467 36.0743 33.3554C36.0743 34.8641 34.8512 36.0872 33.3424 36.0872H6.6575C5.14876 36.0872 3.92567 34.8641 3.92567 33.3554ZM10.7954 17.2683C9.28669 17.2683 8.06361 18.4913 8.06361 20.0001C8.06361 21.5088 9.28668 22.7319 10.7954 22.7319H29.2045C30.7132 22.7319 31.9363 21.5088 31.9363 20.0001C31.9363 18.4913 30.7132 17.2683 29.2045 17.2683H10.7954Z" fill="white"/>
</svg>
