<svg width="40" height="40" viewBox="0 0 40 40" fill="none" xmlns="http://www.w3.org/2000/svg">
<rect width="40" height="40" rx="20" fill="white"/>
<path d="M14.1 12.0752H21.2229C22.6309 12.0752 23.766 12.4739 24.6281 13.2713C25.4901 14.0615 25.9212 15.1751 25.9212 16.6118C25.9212 17.8475 25.5368 18.9251 24.7681 19.8446C23.9995 20.7569 22.8177 21.2131 21.2229 21.2131H16.2444V27.9049H14.1V12.0752ZM23.7552 16.6226C23.7552 15.4588 23.3242 14.6686 22.4621 14.2519C21.988 14.0292 21.3378 13.9179 20.5117 13.9179H16.2444V19.4028H20.5117C21.4743 19.4028 22.2538 19.198 22.85 18.7886C23.4535 18.3791 23.7552 17.6571 23.7552 16.6226Z" fill="black"/>
</svg>
