<svg width="175" height="56" viewBox="0 0 175 56" fill="none" xmlns="http://www.w3.org/2000/svg">
<path d="M154.504 24.8636C154.624 24.318 154.744 23.8331 154.983 23.3481C155.521 22.0751 156.238 20.9839 157.075 20.1352C157.972 19.2865 159.048 18.6197 160.244 18.1347C161.439 17.7104 162.755 17.4679 164.189 17.4679C165.564 17.4679 166.88 17.7104 168.075 18.1347C169.271 18.5591 170.347 19.2259 171.244 20.1352C172.14 20.9839 172.858 22.0751 173.336 23.3481C173.515 23.8331 173.695 24.318 173.814 24.8636H167.956C167.358 23.1056 165.744 21.8326 163.831 21.8326C161.918 21.8326 160.244 23.1056 159.706 24.8636H154.504Z" fill="black"/>
<path d="M151.754 24.8638C151.635 24.2576 151.455 23.712 151.276 23.227C150.738 21.954 150.021 20.9235 149.064 20.0748C148.108 19.2261 146.972 18.6199 145.597 18.1955C144.282 17.7712 142.787 17.5893 141.173 17.5893C140.396 17.5893 139.439 17.6499 138.483 17.7712C137.466 17.8318 136.51 18.0137 135.613 18.3168C135.194 18.438 134.836 18.6805 134.597 18.923C134.357 19.1654 134.238 19.4686 134.238 19.9535V24.9244H139.738V22.1965C140.037 22.1359 140.336 22.1359 140.635 22.0752C140.934 22.0752 141.233 22.0146 141.531 22.0146C143.026 22.0146 144.162 22.4996 145.059 23.4695C145.417 23.8333 145.657 24.2576 145.896 24.8032H151.754V24.8638Z" fill="black"/>
<path d="M146.314 27.7735H151.994C151.994 29.4709 151.754 30.9864 151.216 32.2594C150.738 33.5325 149.961 34.563 149.064 35.4723C148.108 36.321 147.032 36.9878 145.716 37.4122C144.401 37.8365 142.966 38.079 141.412 38.079C141.053 38.079 140.635 38.079 140.156 38.0184C139.678 38.0184 139.2 37.9578 138.722 37.8971C138.243 37.8365 137.765 37.7759 137.227 37.6547C136.749 37.594 136.271 37.4728 135.852 37.2909C134.716 36.8666 134.118 36.0785 134.118 34.9874V27.7735H139.618V33.3506C139.858 33.4112 140.156 33.4112 140.455 33.4718C140.814 33.4718 141.113 33.5325 141.412 33.5325C142.129 33.5325 142.787 33.4112 143.385 33.2293C143.983 33.0475 144.521 32.6838 144.939 32.2594C145.358 31.8351 145.716 31.2289 145.955 30.562C146.195 29.8346 146.314 28.9859 146.314 27.9553C146.314 27.8341 146.314 27.7735 146.314 27.7735Z" fill="black"/>
<path d="M122.401 24.8638C122.879 22.7421 124.792 21.1659 127.004 21.1659C127.064 21.1659 127.064 21.1659 127.124 21.1659C126.944 20.681 126.765 20.1354 126.645 19.711C126.406 19.0442 125.868 18.5593 125.091 18.2561C124.314 17.953 123.357 17.7712 122.341 17.7712C121.624 17.7712 120.847 17.8924 120.129 18.0743C119.412 18.2561 118.874 18.4986 118.515 18.6805C118.395 19.0442 118.156 19.6504 117.857 20.3173C117.618 21.0447 117.319 21.8934 117.02 22.8027C116.781 23.4695 116.542 24.1364 116.303 24.8638H122.401Z" fill="black"/>
<path d="M115.287 27.7735H122.58C123.238 29.6527 124.972 30.9258 127.004 30.9258C128.021 30.9258 128.917 30.6227 129.694 30.0771C129.934 30.9864 130.173 31.8957 130.472 32.8656C130.89 34.3811 131.249 35.7148 131.548 36.8666C131.309 37.1697 130.89 37.4122 130.412 37.594C129.934 37.7759 129.336 37.8971 128.618 37.8971C128.14 37.8971 127.662 37.8365 127.303 37.7759C126.944 37.7153 126.705 37.594 126.466 37.4122C126.287 37.2303 126.048 36.9878 125.928 36.7454C125.809 36.5029 125.689 36.1391 125.569 35.7754L124.972 33.5931H119.232C119.053 34.2599 118.874 34.8661 118.754 35.5936C118.575 36.2604 118.395 36.9272 118.276 37.594C117.977 37.7153 117.678 37.7759 117.319 37.8365C117.02 37.8972 116.602 37.9578 116.124 37.9578C115.048 37.9578 114.27 37.7759 113.732 37.4122C113.254 37.0485 112.955 36.5029 112.955 35.836C112.955 35.5329 113.015 35.2298 113.075 34.9267C113.134 34.6236 113.254 34.2599 113.374 33.8962C113.493 33.3506 113.732 32.6231 113.971 31.7744C114.211 30.9258 114.569 30.0164 114.868 29.0465C115.048 28.5009 115.227 28.1372 115.287 27.7735Z" fill="black"/>
<path d="M111.52 24.8638C111.819 23.8938 112.058 23.1057 112.238 22.3177C112.477 21.4084 112.596 20.7415 112.596 20.3172C112.596 19.5291 112.357 18.9229 111.759 18.6198C111.221 18.2561 110.564 18.0742 109.787 18.0742C109.249 18.0742 108.77 18.1348 108.292 18.2561C107.874 18.3773 107.455 18.5592 107.096 18.741C106.618 20.8022 106.14 22.8633 105.602 24.9244L111.52 24.8638Z" fill="black"/>
<path d="M104.825 27.7735H110.564C110.444 28.1372 110.325 28.5009 110.145 28.8646C109.727 30.0771 109.308 31.2289 108.83 32.32C108.412 33.4112 107.993 34.3205 107.634 35.1692C107.276 35.9573 106.977 36.5635 106.738 36.8666C106.439 37.1091 105.961 37.3516 105.363 37.5334C104.765 37.7153 104.107 37.8365 103.33 37.8365C102.433 37.8365 101.716 37.7153 101.058 37.4728C100.401 37.2303 99.9822 36.806 99.7431 36.3816C99.5039 35.8967 99.205 35.2905 98.9061 34.5024C98.5474 33.7143 98.1887 32.8656 97.83 31.8957C97.4713 30.9258 97.1126 29.8952 96.6941 28.8646C96.5746 28.5009 96.455 28.1978 96.3354 27.8341H101.955C102.433 29.289 102.852 30.8045 103.33 32.3807H103.629C104.047 30.8651 104.466 29.3496 104.825 27.7735Z" fill="black"/>
<path d="M101.178 24.8637C100.759 23.4088 100.341 21.8932 99.9224 20.3171C99.6833 19.4078 99.3246 18.8016 98.8463 18.4985C98.3681 18.1348 97.7104 18.0135 96.9333 18.0135C96.2757 18.0135 95.6778 18.1348 95.1398 18.3772C94.6017 18.6197 94.1832 18.8622 93.8843 19.1653C94.0637 20.1352 94.3626 21.1658 94.6615 22.1963C94.9006 23.045 95.1996 23.9543 95.4985 24.8637H101.178Z" fill="black"/>
<path d="M90.7158 24.8638C90.5963 24.4395 90.4767 24.0151 90.3571 23.5908C89.9387 22.1359 89.5202 20.8022 89.1017 19.711C88.8626 19.0442 88.3245 18.5593 87.5473 18.2561C86.7701 17.953 85.8136 17.7712 84.7973 17.7712C84.0799 17.7712 83.3027 17.8924 82.5853 18.0743C81.8679 18.2561 81.3299 18.4986 80.9712 18.6805C80.7918 19.1048 80.5527 19.6504 80.3136 20.3779C80.1342 20.8022 79.9549 21.2872 79.7755 21.8328C79.8353 21.8328 79.8353 21.8328 79.8951 21.8328C81.8679 21.8328 83.5419 23.1058 84.1397 24.8638H90.7158Z" fill="black"/>
<path d="M91.5528 27.7735H84.1995C83.6016 29.5921 81.9277 30.9258 79.8951 30.9258C78.819 30.9258 77.8624 30.562 77.0853 29.8952C76.9059 30.5014 76.7266 31.047 76.5472 31.5926C76.3081 32.4413 76.0689 33.1687 75.9494 33.7143C75.8298 34.1387 75.77 34.4418 75.6505 34.7449C75.5907 35.1086 75.5309 35.4117 75.5309 35.7148C75.5309 36.3816 75.77 36.8666 76.3081 37.2909C76.8461 37.6547 77.6233 37.8365 78.6994 37.8365C79.1777 37.8365 79.5364 37.7759 79.8951 37.7153C80.2538 37.6547 80.5527 37.594 80.8516 37.4728C81.031 36.806 81.2103 36.1998 81.3299 35.4723C81.5092 34.8055 81.6886 34.1387 81.8081 33.4718H87.5473L88.1451 35.6542C88.2647 36.0179 88.3843 36.321 88.5039 36.6241C88.6234 36.8666 88.8625 37.1091 89.0419 37.2909C89.281 37.4728 89.5799 37.594 89.8789 37.6547C90.2376 37.7153 90.656 37.7759 91.1941 37.7759C91.9115 37.7759 92.5093 37.6547 92.9876 37.4728C93.4658 37.2909 93.8843 37.0485 94.1235 36.7454C93.8245 35.5936 93.4658 34.1993 93.0474 32.7444C92.6289 31.2289 92.2104 29.6527 91.7321 28.0766C91.6126 28.016 91.5528 27.8947 91.5528 27.7735Z" fill="black"/>
<path d="M154.206 27.7735H159.706C160.303 29.5315 161.918 30.7439 163.831 30.7439C165.744 30.7439 167.358 29.4709 167.956 27.7735H174.173C174.173 29.4102 173.934 30.9258 173.396 32.1988C172.918 33.4718 172.2 34.563 171.303 35.4117C170.407 36.2604 169.39 36.9272 168.135 37.3516C166.939 37.7759 165.564 38.0184 164.13 38.0184C162.695 38.0184 161.379 37.7759 160.124 37.3516C158.928 36.8666 157.852 36.1998 156.956 35.3511C156.059 34.5024 155.401 33.4112 154.863 32.1382C154.445 30.8651 154.206 29.4102 154.206 27.7735Z" fill="black"/>
<path d="M49.8428 15.2905C49.8428 23.7573 49.8428 32.2147 49.8428 40.6814C49.815 40.8308 49.7872 40.9802 49.7408 41.1295C49.5367 41.9323 49.1284 42.6324 48.4233 43.0525C41.7154 46.9545 34.9982 50.8285 28.2811 54.7118C27.4182 55.2065 26.6018 55.8413 25.5812 56C25.3214 56 25.0524 56 24.7926 56C24.0411 55.8973 23.4195 55.5053 22.7886 55.1319C22.436 54.9265 22.0835 54.7211 21.7216 54.5158C15.1993 50.7445 8.66769 46.9732 2.14535 43.1925C1.57013 42.8565 1.11551 42.3897 0.846454 41.7736C0.707286 41.4562 0.633063 41.1109 0.521729 40.7841C0.521729 32.2614 0.521729 23.7293 0.521729 15.2065C0.540284 15.1599 0.55884 15.1039 0.568118 15.0572C0.762953 14.049 1.30107 13.2929 2.18247 12.7795C2.67419 12.4994 3.15664 12.21 3.64837 11.93C10.282 8.09335 16.9157 4.25671 23.5494 0.429405C23.772 0.298717 24.0133 0.214702 24.2545 0.130688C24.4122 0.0746791 24.5792 0.0373396 24.7462 0C25.0246 0 25.3029 0 25.5812 0C25.9523 0.121354 26.342 0.149358 26.6946 0.354726C33.8571 4.49008 41.0196 8.62544 48.1914 12.7701C48.9243 13.1902 49.3975 13.8063 49.6665 14.5998C49.75 14.8238 49.7872 15.0572 49.8428 15.2905ZM1.6629 39.7013C1.76496 39.6173 1.81135 39.5799 1.85774 39.5426C4.71532 37.0595 7.58218 34.5764 10.4305 32.084C10.5604 31.972 10.6624 31.804 10.7181 31.6453C11.0243 30.8518 11.3119 30.0583 11.5995 29.2649C11.7665 28.7981 11.9799 28.3314 12.0634 27.8553C12.3046 26.4737 12.4902 25.0735 12.6943 23.6826C12.7221 23.4772 12.8056 23.3559 12.9726 23.2439C14.2066 22.4317 15.4312 21.6009 16.6652 20.7888C16.7858 20.7141 16.8508 20.6301 16.8693 20.4807C17.0178 19.3232 17.1662 18.1657 17.3332 17.0175C17.3796 16.6721 17.3982 16.2894 17.5744 16.0187C18.3167 14.8518 19.1238 13.713 19.9032 12.5648C19.9867 12.4434 20.0609 12.4154 20.2093 12.4247C21.5639 12.5648 22.9185 12.7048 24.273 12.8261C24.5792 12.8541 24.8204 12.9662 25.0338 13.1715C25.8224 13.9837 26.6203 14.7865 27.4182 15.5893C28.7171 16.9148 30.016 18.2497 31.3242 19.5753C31.3521 19.6033 31.3984 19.6219 31.4077 19.6499C31.4819 19.846 31.5283 20.0513 31.6118 20.2474C32.9293 23.3466 34.2467 26.4457 35.5735 29.5356C35.6291 29.6756 35.7312 29.8063 35.8425 29.8997C37.4383 31.2252 39.0434 32.5414 40.6485 33.8576C40.7227 33.923 40.8155 33.9697 40.9082 33.9977C43.1906 34.8005 45.4729 35.5939 47.746 36.3874C48.0615 36.4994 48.3676 36.6021 48.7109 36.7235C48.7109 36.6021 48.7109 36.5181 48.7109 36.4341C48.7109 29.5076 48.7109 22.5718 48.7109 15.6453C48.7109 14.7958 48.3398 14.161 47.6161 13.7503C40.5093 9.63361 33.4025 5.52625 26.2863 1.4189C25.5627 0.998833 24.8297 0.998833 24.106 1.4189C16.9992 5.52625 9.90164 9.63361 2.7948 13.741C2.0433 14.1704 1.68146 14.8331 1.68146 15.7013C1.68146 23.5986 1.68146 31.4866 1.68146 39.3839C1.66291 39.4772 1.6629 39.5519 1.6629 39.7013ZM40.4072 34.9778C36.2971 39.2719 32.2149 43.5379 28.1234 47.804C28.1697 47.832 28.1883 47.8506 28.2161 47.86C29.5336 48.3921 30.851 48.9148 32.1778 49.4376C32.2613 49.4656 32.3912 49.4376 32.4654 49.3909C36.0559 47.2812 39.6372 45.1715 43.2184 43.0618C43.2648 43.0338 43.3112 42.9965 43.3669 42.9498C42.3927 40.2987 41.4 37.6569 40.4072 34.9778ZM20.2743 41.1109C22.6309 43.1925 24.9503 45.2369 27.2976 47.3186C29.1718 42.2777 31.0366 37.2742 32.9293 32.196C28.68 35.1925 24.4864 38.1424 20.2743 41.1109ZM10.6717 32.8868C10.5975 32.9428 10.5418 32.9802 10.4954 33.0175C7.61001 35.5286 4.7246 38.0397 1.83918 40.5508C1.77424 40.6068 1.69074 40.7188 1.71857 40.7655C1.74641 40.8401 1.84846 40.8962 1.93196 40.9242C5.27199 41.8763 8.61202 42.8191 11.9521 43.762C12.0263 43.7806 12.0912 43.7993 12.2026 43.818C11.6923 40.168 11.1913 36.5461 10.6717 32.8868ZM28.4852 46.2637C28.5037 46.273 28.5223 46.2824 28.5316 46.2917C32.3169 42.3337 36.1023 38.3851 39.9062 34.4084C37.8929 33.4936 35.9075 32.6068 33.9035 31.6919C32.1036 36.5648 30.2944 41.4096 28.4852 46.2637ZM32.1592 31.8226C32.0664 31.8226 32.0386 31.8226 32.0108 31.8226C30.2758 32.084 28.5409 32.3454 26.8152 32.6068C25.1173 32.8681 23.4288 33.1295 21.7309 33.3816C21.5639 33.4096 21.5268 33.4749 21.4897 33.6243C21.1371 35.5006 20.766 37.3769 20.4042 39.2532C20.3485 39.5613 20.2928 39.8693 20.2186 40.2334C24.2174 37.4236 28.1605 34.6418 32.1592 31.8226ZM26.5832 47.6826C24.3287 45.6943 22.1299 43.7526 19.9032 41.783C19.43 44.098 18.9754 46.3477 18.5115 48.6441C21.2114 48.3267 23.8648 48.0093 26.5832 47.6826ZM41.1773 34.9032C42.1329 37.4609 43.0607 39.9533 43.9885 42.4644C44.0534 42.4084 44.0906 42.3804 44.1184 42.3524C44.8792 41.6336 45.64 40.9148 46.3915 40.196C47.1059 39.5239 47.8202 38.8425 48.5346 38.1704C48.813 37.909 48.7388 37.5543 48.3955 37.4329C46.6976 36.8355 44.9998 36.2474 43.3019 35.6499C42.6246 35.4072 41.9288 35.1645 41.1773 34.9032ZM27.91 23.1785C28.1512 24.6254 28.3831 26.035 28.6058 27.4446C28.6336 27.6033 28.7171 27.6593 28.8563 27.6966C30.4428 28.1634 32.0293 28.6301 33.6158 29.0968C33.9591 29.1995 34.3024 29.2929 34.6642 29.3956C34.655 29.3582 34.655 29.3489 34.655 29.3396C33.8478 27.4259 33.0406 25.5123 32.2242 23.5986C32.1963 23.5239 32.0664 23.4679 31.9829 23.4586C30.9624 23.3746 29.9325 23.3092 28.912 23.2345C28.578 23.2159 28.2532 23.1972 27.91 23.1785ZM24.0133 54.5064C24.8204 54.9545 25.5719 54.9545 26.3235 54.5158C31.1851 51.6966 36.0559 48.8868 40.9268 46.0677C43.1442 44.7888 45.3616 43.5006 47.579 42.2217C48.1171 41.9137 48.5254 41.4749 48.6274 40.8681C48.7202 40.2987 48.6924 39.7013 48.7202 39.1132C48.6181 39.1319 48.581 39.1599 48.5439 39.1972C47.3656 40.3081 46.1966 41.4282 45.0091 42.5298C44.6194 42.9032 44.239 43.3139 43.7844 43.5846C39.8506 45.9277 35.8982 48.2427 31.9551 50.5578C30.0903 51.6499 28.244 52.7608 26.2307 53.5543C25.4977 53.8436 24.7833 54.1704 24.0133 54.5064ZM18.8548 34.6231C19.4486 33.0922 20.0238 31.6079 20.6176 30.0957C18.2239 29.6476 15.8673 29.2089 13.4458 28.7515C15.2642 30.7398 17.0456 32.6628 18.8548 34.6231ZM32.5767 30.9825C32.5396 30.9452 32.5396 30.9265 32.5211 30.9172C31.1572 30.0863 29.7841 29.2555 28.4202 28.4341C28.3646 28.4061 28.2625 28.4154 28.1976 28.4527C27.9935 28.5648 27.8079 28.6954 27.6131 28.8261C25.9152 29.909 24.1895 30.9358 22.7144 32.3267C22.6587 32.3734 22.603 32.4294 22.501 32.5228C25.8967 32 29.2274 31.4959 32.5767 30.9825ZM11.516 33.2415C11.4974 33.2509 11.4882 33.2602 11.4696 33.2695C11.9242 36.5181 12.3788 39.7573 12.8427 43.0712C12.8984 42.9685 12.9262 42.9218 12.9541 42.8751C13.7798 41.1855 14.5962 39.4866 15.422 37.797C15.5147 37.6103 15.5147 37.4983 15.357 37.3396C14.5962 36.5461 13.854 35.734 13.1025 34.9312C12.5829 34.3617 12.0541 33.8016 11.516 33.2415ZM13.7241 23.6453C15.8766 25.2976 17.9919 26.9312 20.1166 28.5648C20.1258 28.5554 20.1444 28.5461 20.1537 28.5274C19.1146 26.1657 18.0754 23.804 17.027 21.4236C15.923 22.1704 14.8467 22.8985 13.7241 23.6453ZM22.4731 23.0105C20.9423 22.5064 19.43 22.0023 17.862 21.4889C18.9197 23.888 19.9588 26.2497 21.0258 28.6768C21.5268 26.7538 22 24.8962 22.4731 23.0105ZM29.914 19.2205C28.179 17.4562 26.4997 15.748 24.7926 14.0023C24.5421 15.4679 24.2916 16.8868 24.0411 18.3244C25.9895 18.6231 27.9192 18.9125 29.914 19.2205ZM2.31236 41.811C2.30308 41.8296 2.2938 41.8483 2.28452 41.867C2.45152 41.9883 2.61852 42.119 2.7948 42.2217C5.16066 43.5939 7.53579 44.9662 9.90164 46.3384C10.1893 46.5064 10.449 46.4597 10.6532 46.2077C10.8109 46.021 10.9686 45.825 11.1263 45.6289C11.4139 45.2742 11.7015 44.9195 12.0077 44.5461C8.75119 43.6313 5.53177 42.7258 2.31236 41.811ZM13.353 24.3081C13.1674 25.5309 12.9912 26.6978 12.8149 27.8833C15.0787 28.3034 17.3239 28.7235 19.5692 29.1529C19.5784 29.1435 19.5785 29.1342 19.5877 29.1155C17.528 27.5193 15.4591 25.9323 13.353 24.3081ZM16.4982 41.6149C15.3849 42.5484 14.3179 43.4446 13.2324 44.3501C14.6612 45.6009 16.0621 46.8331 17.5188 48.112C17.1755 45.9277 16.8415 43.7993 16.4982 41.6149ZM12.5366 28.8821C12.1562 29.9277 11.785 30.9172 11.4232 31.9253C13.4736 32.7375 15.4962 33.5309 17.5188 34.3337C17.528 34.3244 17.528 34.3057 17.5373 34.2964C15.8766 32.5041 14.2251 30.7118 12.5366 28.8821ZM23.4844 23.8226C23.8463 25.8763 24.1988 27.8646 24.5607 29.881C25.6276 29.1995 26.6575 28.5368 27.7337 27.846C27.4739 27.6686 27.242 27.5099 27.01 27.3512C27.0471 27.3326 27.0842 27.3232 27.1306 27.2952C25.9152 26.147 24.7277 25.0082 23.4844 23.8226ZM27.4925 48.5508C26.3606 50.4084 25.1544 52.1634 23.7257 53.7783C25.7297 52.8915 27.8172 52.1914 29.682 50.9778C28.9584 50.1844 28.244 49.3909 27.4925 48.5508ZM22.7515 53.769C23.3916 52.9755 24.0225 52.21 24.672 51.4166C22.7979 50.8658 20.9516 50.3151 19.0589 49.755C19.1053 49.8296 19.1146 49.8576 19.1331 49.8857C19.9217 50.9218 20.7103 51.958 21.499 52.9942C21.5268 53.0408 21.5639 53.0782 21.6103 53.1062C21.9907 53.3302 22.3618 53.5449 22.7515 53.769ZM18.094 16.8401C17.9363 18.0163 17.7878 19.1552 17.6394 20.3221C19.2816 19.7526 20.8773 19.1925 22.5381 18.6138C21.0351 18.0163 19.5784 17.4376 18.094 16.8401ZM20.0052 49.2229C20.0052 49.2322 20.0052 49.2509 20.0052 49.2602C20.0423 49.2696 20.0702 49.2882 20.1073 49.2976C21.7402 49.783 23.3731 50.259 25.006 50.7538C25.1452 50.7911 25.2008 50.7351 25.2658 50.6418C25.4977 50.2871 25.7297 49.923 25.9616 49.5683C26.2028 49.2042 26.4441 48.8308 26.7038 48.4294C24.44 48.6908 22.2226 48.9522 20.0052 49.2229ZM30.0995 20.0047C28.2625 19.7246 26.4719 19.4539 24.6813 19.1832C24.672 19.2019 24.672 19.2112 24.6627 19.2299C25.5998 20.238 26.5368 21.2369 27.4832 22.245C28.3646 21.4983 29.2089 20.7701 30.0995 20.0047ZM12.5366 33.1669C12.5273 33.1762 12.5273 33.1855 12.518 33.1949C13.687 34.4457 14.856 35.6966 16.0436 36.9662C16.758 36.4527 17.4631 35.9487 18.2146 35.4166C16.2941 34.6604 14.42 33.9137 12.5366 33.1669ZM23.1411 19.2019C21.5361 19.762 19.9774 20.3034 18.363 20.8728C19.8197 21.3489 21.2114 21.8063 22.6309 22.2824C22.7979 21.2369 22.9649 20.238 23.1411 19.2019ZM27.1492 23.1599C26.0544 23.1599 24.9874 23.1599 23.8741 23.1599C25.1823 24.4107 26.4533 25.6243 27.7615 26.8845C27.5481 25.6056 27.3533 24.3827 27.1492 23.1599ZM21.5825 29.5356C22.334 29.6943 23.0669 29.853 23.8277 30.021C23.503 28.2007 23.1875 26.4177 22.8721 24.6441C22.8535 24.6441 22.8443 24.6441 22.8257 24.6441C22.4175 26.259 22.0092 27.874 21.5825 29.5356ZM17.2033 41.3069C17.5002 43.1739 17.7878 45.0128 18.0754 46.8425C18.094 46.8425 18.1033 46.8425 18.1218 46.8518C18.4929 45.0502 18.8548 43.2485 19.2259 41.4282C18.5486 41.3909 17.8899 41.3536 17.2033 41.3069ZM11.3026 46.5904C13.019 47.1319 14.6797 47.6546 16.3498 48.1774C16.359 48.1587 16.3683 48.1307 16.3776 48.112C15.1529 47.0385 13.9282 45.965 12.6943 44.8821C12.2397 45.4422 11.7943 45.993 11.3026 46.5904ZM13.8076 42.8378C13.8169 42.8471 13.8355 42.8565 13.8447 42.8658C14.6983 42.147 15.5519 41.4376 16.4054 40.7188C16.4333 40.6908 16.4611 40.6628 16.4796 40.6348C16.7858 40.0093 17.0827 39.3839 17.3889 38.7398C16.9714 38.4971 16.5724 38.2544 16.1456 38.0023C15.3663 39.6266 14.587 41.2322 13.8076 42.8378ZM30.8232 20.3687C30.0068 21.0688 29.2181 21.741 28.3924 22.4597C29.5707 22.5438 30.684 22.6184 31.8345 22.6931C31.4912 21.8997 31.1665 21.1529 30.8232 20.3687ZM20.1815 13.4609C19.6156 14.2917 19.0774 15.0852 18.5115 15.916C19.597 15.8786 20.6454 15.8413 21.7309 15.7946C21.2021 15.0105 20.7011 14.245 20.1815 13.4609ZM14.9766 48.5228C14.9674 48.5414 14.9581 48.5601 14.9395 48.5694C16.5631 49.699 17.9827 51.1179 19.8011 52.0513C19.7733 51.9767 19.764 51.958 19.7547 51.9393C19.1331 51.1272 18.5115 50.3057 17.8899 49.4936C17.8435 49.4376 17.7785 49.3816 17.7136 49.3629C16.8044 49.0828 15.8859 48.8028 14.9766 48.5228ZM22.4268 15.4959C22.9185 14.8238 23.3824 14.189 23.8648 13.5356C22.8721 13.4422 21.9257 13.3489 20.9423 13.2462C21.4433 14.0023 21.9165 14.7305 22.4268 15.4959ZM25.0802 20.7608C24.6349 21.3022 24.1988 21.825 23.7442 22.3664C24.7091 22.3664 25.6276 22.3664 26.5832 22.3664C26.0637 21.825 25.5812 21.3022 25.0802 20.7608ZM20.599 34.3057C20.5897 34.2964 20.5805 34.2777 20.5712 34.2684C20.1908 34.6511 19.8104 35.0338 19.43 35.4166C19.3929 35.4539 19.4022 35.5286 19.4022 35.5939C19.5135 36.5741 19.6248 37.5543 19.7362 38.5251C19.7547 38.5251 19.764 38.5251 19.7826 38.5251C20.0609 37.1155 20.33 35.7153 20.599 34.3057ZM23.4659 30.7118C22.8814 30.5811 22.3525 30.4691 21.8144 30.3571C21.5732 30.3011 21.5175 30.3384 21.5175 30.5998C21.5268 31.1225 21.5361 31.6359 21.5546 32.1587C21.5546 32.1867 21.5732 32.224 21.601 32.2707C22.2134 31.7573 22.8257 31.2439 23.4659 30.7118ZM37.9764 32.7095C37.9857 32.7001 37.995 32.6814 38.0043 32.6721C37.1136 31.9347 36.2229 31.2065 35.323 30.4691C35.0261 30.6838 34.757 30.8891 34.4509 31.1225C35.6477 31.6639 36.8074 32.1867 37.9764 32.7095ZM22.8535 17.9323C22.6216 17.4469 22.4175 17.0268 22.2041 16.6068C22.1855 16.5694 22.0927 16.5414 22.0371 16.5414C21.332 16.5601 20.6361 16.5788 19.931 16.6068C19.8475 16.6068 19.7733 16.6254 19.6898 16.6348C19.6898 16.6441 19.6898 16.6628 19.6898 16.6721C20.7289 17.0828 21.7587 17.5029 22.8535 17.9323ZM33.6808 30.7398C33.9499 30.5438 34.2004 30.3477 34.4972 30.133C33.3468 29.797 32.2427 29.4702 31.1387 29.1435C31.1294 29.1622 31.1294 29.1715 31.1201 29.1902C31.9737 29.7036 32.8272 30.2264 33.6808 30.7398ZM31.4819 49.9697C30.5913 49.6149 29.747 49.2789 28.9027 48.9335C28.8934 48.9428 28.8841 48.9522 28.8749 48.9708C29.3666 49.5216 29.8676 50.063 30.3593 50.6231C30.7397 50.4084 31.083 50.203 31.4819 49.9697ZM23.438 17.4282C23.5958 16.5228 23.7442 15.6733 23.8927 14.8331C23.5308 15.2532 23.2061 15.692 22.8906 16.14C22.8721 16.168 22.8721 16.2334 22.8814 16.2614C23.0576 16.6254 23.2339 16.9988 23.438 17.4282ZM18.2332 36.3874C18.2146 36.3781 18.2053 36.3687 18.1868 36.3594C17.695 36.7141 17.194 37.0782 16.6745 37.4516C17.027 37.6569 17.3425 37.8436 17.6672 38.0397C17.862 37.4609 18.0476 36.9195 18.2332 36.3874ZM17.3425 40.5694C17.8806 40.5974 18.3631 40.6254 18.9104 40.6534C18.5672 40.1867 18.2703 39.7573 17.9455 39.3092C17.7414 39.7386 17.5466 40.14 17.3425 40.5694ZM19.0867 39.6173C19.096 39.6079 19.1146 39.6079 19.1238 39.5986C19.0218 38.7678 18.929 37.937 18.8269 37.1062C18.6228 37.5543 18.4744 37.993 18.3259 38.4411C18.3167 38.4784 18.3167 38.5438 18.3352 38.5718C18.5764 38.9265 18.8362 39.2719 19.0867 39.6173ZM23.5308 21.3769C23.5494 21.3862 23.5587 21.3956 23.5772 21.3956C23.9019 21.0035 24.2359 20.6114 24.5607 20.21C24.3287 19.958 24.106 19.7246 23.8463 19.4446C23.7442 20.126 23.6329 20.7515 23.5308 21.3769ZM20.0238 33.6896C20.0423 33.699 20.0516 33.7083 20.0702 33.7176C20.3114 33.4656 20.5526 33.2229 20.7938 32.9708C20.8217 32.9428 20.8495 32.8868 20.8495 32.8495C20.8495 32.4948 20.8495 32.14 20.8495 31.7853C20.8217 31.7853 20.7938 31.776 20.7753 31.776C20.5155 32.4201 20.265 33.0548 20.0238 33.6896ZM13.2973 48.2987C13.0376 48.028 12.7778 47.7666 12.3139 47.7293C12.6757 47.944 12.9819 48.1214 13.2973 48.2987Z" fill="black"/>
</svg>
