<svg width="261" height="56" viewBox="0 0 261 56" fill="none" xmlns="http://www.w3.org/2000/svg">
<path d="M21.1731 7C32.7651 7 42.1731 16.408 42.1731 28C42.1731 39.592 32.7651 49 21.1731 49C9.5811 49 0.173096 39.592 0.173096 28C0.173096 16.408 9.5811 7 21.1731 7ZM228.126 18.2051C233.078 18.2051 236.125 21.0254 236.125 28.6479V30.706C236.125 38.9383 232.164 41.5299 226.449 41.4537C225.078 41.4537 223.173 41.3013 222.031 40.9964V48.9238H216.85V18.7387H221.65V20.1869C223.631 18.8149 225.992 18.2051 228.126 18.2051ZM31.1691 32.956L21.1731 38.752L11.1771 32.956L8.9931 34.216V37.324L21.1731 44.38V41.272L33.3531 34.216L31.1691 32.956ZM250.068 18.2813C257.458 18.2813 260.048 23.0835 260.048 29.7913V31.5445H245.268L245.268 32.094C245.285 35.2736 245.818 37.2613 251.134 37.2613C253.496 37.2613 256.239 37.0327 259.134 36.7278V40.6152C257.458 40.9964 254.563 41.5299 250.906 41.5299C242.906 41.5299 240.087 38.4809 240.087 30.706V29.3339C240.087 21.8639 243.439 18.2813 250.068 18.2813ZM202.45 18.2813C209.536 18.2813 211.364 20.7205 211.364 26.3612V40.9201H206.641V39.4719C205.269 40.4628 202.755 41.5299 199.632 41.5299C195.517 41.5299 193.156 39.4719 193.156 35.2033V34.3648C193.156 28.4192 197.422 27.657 203.593 27.657H206.107V26.2849C206.107 23.1597 205.498 22.5499 201.536 22.5499C199.327 22.5499 197.041 22.7024 194.603 23.0073V19.5009C195.594 19.1198 198.87 18.2813 202.45 18.2813ZM97.312 18.2813C103.788 18.2813 107.292 21.559 107.292 28.4955V31.2396C107.292 38.2523 103.788 41.5299 97.312 41.5299C90.836 41.5299 87.3314 38.2523 87.3314 31.2396V28.4955C87.3314 21.559 90.836 18.2813 97.312 18.2813ZM58.0755 10.4301V19.3485C59.6754 18.5862 61.5801 18.2813 63.2562 18.2813C69.3512 18.2813 72.1701 21.4065 72.1701 28.1143V31.1633C72.1701 38.5572 68.5893 41.5299 61.7325 41.5299C58.8373 41.5299 56.8565 41.3775 52.8947 40.9201V10.4301H58.0755ZM182.947 18.2051C186.375 18.2051 188.813 18.7387 189.803 19.0436V23.0073C186.984 22.7786 185.08 22.6261 183.861 22.6261C180.661 22.6261 178.832 23.6171 178.832 28.4192V31.2396C178.832 36.0417 180.661 37.1089 183.861 37.1089C185.08 37.1089 186.984 36.9564 189.803 36.7278V40.6915C188.737 40.9964 186.299 41.5299 182.947 41.4537C176.623 41.4537 173.652 37.8711 173.652 31.2396V28.4192C173.652 21.6352 176.623 18.2051 182.947 18.2051ZM120.625 18.2051C124.054 18.2051 126.492 18.7387 127.482 19.0436V23.0073C124.663 22.7786 122.759 22.6261 121.54 22.6261C118.34 22.6261 116.511 23.6171 116.511 28.4192V31.2396C116.511 36.0417 118.34 37.1089 121.54 37.1089C122.759 37.1089 124.663 36.9564 127.482 36.7278V40.6915C126.416 40.9964 123.978 41.5299 120.625 41.4537C114.302 41.4537 111.33 37.8711 111.33 31.2396V28.4192C111.33 21.6352 114.302 18.2051 120.625 18.2051ZM162.147 18.2813C164.662 18.2813 168.014 18.7387 169.08 19.1198V22.7024C166.566 22.4737 164.128 22.3212 162.224 22.3212C159.557 22.3212 158.414 22.5499 158.414 24.1506C158.414 25.5989 159.176 25.98 161.919 27.0472L163.671 27.7332C168.471 29.6388 170.071 31.1633 170.147 34.8221C170.147 39.0145 167.328 41.5299 161.157 41.3775C158.109 41.3775 154.605 40.8439 153.614 40.539V36.8802C154.757 36.9564 158.109 37.4138 160.928 37.4138C164.204 37.4138 165.042 36.7278 165.042 35.127C165.042 33.6025 164.357 33.2214 161.081 31.9256L159.405 31.2396C155.214 29.6388 153.31 27.7332 153.31 24.3031C153.31 19.882 156.281 18.2813 162.147 18.2813ZM137.082 10.3539V28.6479L144.929 18.8149H150.795L142.262 29.4102L151.024 40.9201V40.9964H144.929L137.082 30.4773V40.8439H131.901V10.3539H137.082ZM82.3792 10.4301V40.9201H77.1985V10.4301H82.3792ZM206.336 30.9347H203.593C199.784 30.9347 198.184 31.392 198.184 34.2886V35.2033C198.184 37.2613 199.479 37.7949 201.308 37.7949C203.365 37.7949 205.574 36.8802 206.336 36.4229V30.9347ZM226.754 22.7786C225.307 22.7786 224.088 23.0073 221.954 23.922V36.7278C223.478 37.0327 224.85 37.1851 226.069 37.1851C229.192 37.1851 231.021 36.118 231.021 30.706V28.7241C231.021 24.1506 229.649 22.7786 226.754 22.7786ZM62.5705 22.6261C61.5801 22.6261 59.3707 22.7786 57.9993 23.4646V36.9564C58.8373 36.9564 60.2087 37.1089 61.8087 37.1089C65.3895 37.1089 66.9894 35.8131 66.9894 31.1633V28.0381C66.9894 23.9982 65.8466 22.6261 62.5705 22.6261ZM97.3881 22.7024C94.1121 22.7024 92.5883 24.2269 92.5883 28.4955V31.2396C92.5883 35.5082 94.0359 37.1089 97.3881 37.1089C100.74 37.1089 102.188 35.5082 102.188 31.2396V28.4955C102.188 24.3031 100.74 22.7024 97.3881 22.7024ZM31.1691 25.228L21.1731 31.024L11.1771 25.228L9.0771 26.488L8.9931 29.512L21.1731 36.568V33.46L33.3531 26.488L31.1691 25.228ZM21.1731 11.62L9.0771 18.676L8.9931 21.784L21.1731 28.84V25.732L33.3531 18.676L21.1731 11.62ZM250.068 22.3975C245.877 22.3975 245.268 25.2178 245.268 27.7332V28.1143H254.867V27.7332C254.867 25.2178 254.334 22.3975 250.068 22.3975Z" fill="black"/>
</svg>
