<svg width="163" height="56" viewBox="0 0 163 56" fill="none" xmlns="http://www.w3.org/2000/svg">
<path d="M10.9306 35.2858C10.9306 34.3389 10.1778 33.5714 9.249 33.5714H1.68164C0.752895 33.5714 0 34.3389 0 35.2858V43C0 43.9467 0.752895 44.7142 1.68164 44.7142H8.40818C9.33693 44.7142 10.0898 45.4819 10.0898 46.4286V53.2856C10.0898 54.2325 10.8427 55 11.7715 55H19.3388C20.2676 55 21.0204 54.2325 21.0204 53.2856V45.5714C21.0204 44.6247 20.2676 43.8572 19.3388 43.8572H12.6123C11.6835 43.8572 10.9306 43.0897 10.9306 42.1428V35.2858Z" fill="black"/>
<path d="M21.0204 2.71429C21.0204 1.76751 20.2676 1 19.3388 1H11.7715C10.8427 1 10.0898 1.76751 10.0898 2.71429V9.57142C10.0898 10.5182 9.33693 11.2857 8.40818 11.2857H1.68164C0.752895 11.2857 0 12.0532 0 13V20.7143C0 21.6611 0.752895 22.4286 1.68164 22.4286H9.249C10.1778 22.4286 10.9306 21.6611 10.9306 20.7143V13.8571C10.9306 12.9104 11.6835 12.1429 12.6123 12.1429H19.3388C20.2676 12.1429 21.0204 11.3753 21.0204 10.4286V2.71429Z" fill="black"/>
<path d="M33.6326 2.71429C33.6326 1.76751 34.3856 1 35.3143 1H42.8818C43.8105 1 44.5633 1.76751 44.5633 2.71429V9.57142C44.5633 10.5182 45.3163 11.2857 46.2449 11.2857H52.9715C53.9004 11.2857 54.6532 12.0532 54.6532 13V20.7143C54.6532 21.6611 53.9004 22.4286 52.9715 22.4286H45.4042C44.4753 22.4286 43.7225 21.6611 43.7225 20.7143V13.8571C43.7225 12.9104 42.9698 12.1429 42.0409 12.1429H35.3143C34.3856 12.1429 33.6326 11.3753 33.6326 10.4286V2.71429Z" fill="black"/>
<path d="M43.7225 35.2858C43.7225 34.3389 44.4753 33.5714 45.4042 33.5714H52.9715C53.9004 33.5714 54.6532 34.3389 54.6532 35.2858V43C54.6532 43.9467 53.9004 44.7142 52.9715 44.7142H46.2449C45.3163 44.7142 44.5633 45.4819 44.5633 46.4286V53.2856C44.5633 54.2325 43.8105 55 42.8818 55H35.3143C34.3856 55 33.6326 54.2325 33.6326 53.2856V45.5714C33.6326 44.6247 34.3856 43.8572 35.3143 43.8572H42.0409C42.9698 43.8572 43.7225 43.0897 43.7225 42.1428V35.2858Z" fill="black"/>
<path d="M19.1369 28.9614C18.7511 28.3808 18.7511 27.6192 19.1369 27.0386L25.9344 16.3503C26.6014 15.3465 28.0518 15.3465 28.7188 16.3503L35.5163 27.0386C35.9021 27.6192 35.9021 28.3808 35.5163 28.9614L28.7188 39.6497C28.0518 40.6534 26.6014 40.6534 25.9344 39.6497L19.1369 28.9614Z" fill="black"/>
<path d="M67.8614 32.339C67.8614 29.8707 68.3524 27.6816 69.3337 25.7714C70.3448 23.8616 71.7128 22.3923 73.4377 21.3639C75.1626 20.3354 77.0809 19.8212 79.1925 19.8212C80.7986 19.8212 82.33 20.1738 83.7874 20.879C85.2445 21.5549 86.4045 22.4658 87.2669 23.6118V11.4049C87.2669 11.2372 87.4045 11.1013 87.5741 11.1013H93.2944C93.4641 11.1013 93.6016 11.2372 93.6016 11.4049V44.3329C93.6016 44.5005 93.4641 44.6365 93.2944 44.6365H87.5741C87.4045 44.6365 87.2669 44.5005 87.2669 44.3329V41.0222C86.4936 42.2269 85.4082 43.1965 84.0103 43.9312C82.6126 44.6658 80.9917 45.0332 79.1478 45.0332C77.066 45.0332 75.1626 44.5043 73.4377 43.4463C71.7128 42.3886 70.3448 40.9046 69.3337 38.9946C68.3524 37.0553 67.8614 34.8366 67.8614 32.339ZM87.3115 32.4271C87.3115 30.9284 87.014 29.6503 86.4193 28.5926C85.8245 27.5053 85.0216 26.6824 84.0103 26.1241C82.9992 25.5364 81.9137 25.2427 80.7539 25.2427C79.594 25.2427 78.5233 25.5219 77.5419 26.0802C76.5605 26.6385 75.7576 27.4612 75.1329 28.5485C74.5381 29.6061 74.2409 30.8697 74.2409 32.339C74.2409 33.8083 74.5381 35.1012 75.1329 36.2179C75.7576 37.3049 76.5605 38.1424 77.5419 38.7303C78.553 39.3179 79.6237 39.6116 80.7539 39.6116C81.9137 39.6116 82.9992 39.3325 84.0103 38.7742C85.0216 38.1865 85.8245 37.3638 86.4193 36.3059C87.014 35.2186 87.3115 33.9257 87.3115 32.4271Z" fill="black"/>
<path d="M105.639 20.2179C105.809 20.2179 105.947 20.3538 105.947 20.5214V44.3329C105.947 44.5005 105.809 44.6365 105.639 44.6365H100.008C99.8388 44.6365 99.7012 44.5005 99.7012 44.3329V20.5214C99.7012 20.3538 99.8388 20.2179 100.008 20.2179H105.639Z" fill="black"/>
<path d="M99.5256 11.4532C99.5256 11.2858 99.6629 11.1502 99.8324 11.1502H105.724C105.894 11.1502 106.031 11.2858 106.031 11.4532V17.275C106.031 17.4424 105.894 17.5781 105.724 17.5781H99.8324C99.6629 17.5781 99.5256 17.4424 99.5256 17.275V11.4532Z" fill="black"/>
<path d="M122.145 38.9726L128.321 20.4484C128.362 20.3239 128.48 20.2398 128.612 20.2398H134.596C134.81 20.2398 134.958 20.4505 134.884 20.6487L125.966 44.4601C125.922 44.5794 125.807 44.6583 125.678 44.6583H118.523C118.394 44.6583 118.279 44.5792 118.234 44.4597L109.36 20.6483C109.286 20.4501 109.435 20.2398 109.648 20.2398H115.677C115.81 20.2398 115.927 20.3239 115.969 20.4484L122.145 38.9726Z" fill="black"/>
<path d="M136.939 32.3609C136.939 29.8926 137.429 27.7035 138.411 25.7935C139.422 23.8835 140.775 22.4143 142.471 21.3858C144.196 20.3573 146.114 19.8431 148.225 19.8431C150.069 19.8431 151.675 20.2104 153.043 20.945C154.441 21.6797 155.556 22.6053 156.389 23.7219V20.5433C156.389 20.3757 156.526 20.2398 156.696 20.2398H162.372C162.541 20.2398 162.679 20.3757 162.679 20.5433V44.355C162.679 44.5226 162.541 44.6583 162.372 44.6583H156.696C156.526 44.6583 156.389 44.5226 156.389 44.355V41.0882C155.586 42.2342 154.471 43.1893 153.043 43.9532C151.645 44.6879 150.024 45.0551 148.181 45.0551C146.099 45.0551 144.196 44.5261 142.471 43.4684C140.775 42.4105 139.422 40.9267 138.411 39.0165C137.429 37.0772 136.939 34.8587 136.939 32.3609ZM156.389 32.4491C156.389 30.9505 156.091 29.6724 155.497 28.6144C154.902 27.5271 154.099 26.7045 153.088 26.1462C152.077 25.5585 150.991 25.2645 149.831 25.2645C148.671 25.2645 147.601 25.5437 146.619 26.102C145.638 26.6603 144.835 27.483 144.21 28.5703C143.615 29.6282 143.318 30.8918 143.318 32.3609C143.318 33.8301 143.615 35.1231 144.21 36.2397C144.835 37.327 145.638 38.1644 146.619 38.7521C147.63 39.3398 148.701 39.6337 149.831 39.6337C150.991 39.6337 152.077 39.3545 153.088 38.7962C154.099 38.2086 154.902 37.3857 155.497 36.328C156.091 35.2407 156.389 33.9477 156.389 32.4491Z" fill="black"/>
</svg>
