<svg width="142" height="56" viewBox="0 0 142 56" fill="none" xmlns="http://www.w3.org/2000/svg">
<g clip-path="url(#clip0_4577_5389)">
<path d="M136.588 43.794C136.24 43.7601 135.918 43.5918 135.692 43.3247C135.466 43.0577 135.352 42.7129 135.376 42.3637C135.366 42.0121 135.496 41.6708 135.737 41.4143C135.977 41.1577 136.31 41.0066 136.661 40.994C136.927 40.981 137.19 41.0558 137.409 41.207C137.628 41.3582 137.791 41.5772 137.873 41.8304H139.158C139.058 41.3054 138.769 40.8352 138.346 40.5092C137.883 40.1068 137.286 39.8946 136.673 39.9152C136.03 39.9152 135.414 40.1706 134.959 40.6253C134.504 41.0799 134.249 41.6965 134.249 42.3394C134.235 42.6813 134.294 43.0223 134.421 43.3398C134.549 43.6573 134.742 43.9443 134.988 44.1819C135.457 44.6434 136.088 44.9042 136.746 44.9091C137.306 44.9228 137.854 44.7419 138.296 44.3971C138.738 44.0524 139.047 43.5651 139.17 43.0182H137.885C137.78 43.2691 137.598 43.4798 137.364 43.6194C137.131 43.759 136.859 43.8202 136.588 43.794ZM141.146 40.4243C140.891 39.831 140.525 39.292 140.067 38.8364C139.606 38.3708 139.056 38.0023 138.451 37.7525C137.845 37.5027 137.195 37.3767 136.54 37.3819C135.874 37.3829 135.215 37.5146 134.6 37.7698C133.403 38.2735 132.45 39.2264 131.946 40.4243C131.691 41.0433 131.559 41.7062 131.558 42.3758C131.559 43.0414 131.691 43.7004 131.946 44.3152C132.201 44.9056 132.562 45.4439 133.013 45.903C133.466 46.3605 134.006 46.7231 134.6 46.9697C135.213 47.235 135.873 47.3712 136.54 47.3697C137.207 47.3712 137.867 47.235 138.479 46.9697C139.071 46.7234 139.607 46.3607 140.055 45.903C140.515 45.4497 140.882 44.9102 141.134 44.3152C141.389 43.7004 141.521 43.0414 141.522 42.3758C141.525 41.7071 141.397 41.0442 141.146 40.4243ZM140.14 43.8909C139.849 44.6146 139.346 45.2334 138.697 45.6661C138.048 46.0987 137.283 46.325 136.503 46.3152C135.983 46.3178 135.468 46.2147 134.988 46.0121C134.537 45.8086 134.127 45.5253 133.776 45.1758C133.43 44.8223 133.148 44.4124 132.94 43.9637C132.743 43.4826 132.64 42.9683 132.637 42.4485C132.64 41.9248 132.743 41.4066 132.94 40.9213C133.333 39.979 134.082 39.2299 135.025 38.8364C135.505 38.6385 136.02 38.5356 136.54 38.5334C137.053 38.5291 137.562 38.6276 138.037 38.8233C138.512 39.019 138.942 39.3079 139.303 39.6728C140.057 40.4026 140.492 41.3999 140.516 42.4485C140.485 42.9492 140.358 43.4392 140.14 43.8909ZM25.3285 11.0791C21.8231 9.36281 17.9429 8.55425 14.0438 8.72757H11.8377V17.3699H15.2316C20.9043 17.3699 24.3952 21.176 24.3952 28.0486C24.3952 34.9213 20.8558 38.6304 15.1832 38.6304H11.8377V47.2727H14.6619C26.6861 47.2727 34.177 40.7031 34.177 28.0002C34.2254 20.1214 30.783 14.1942 25.3285 11.0791ZM0.928711 47.2727H10.7711V38.6304V17.3699V8.72757H0.928711V47.2727ZM54.5647 24.4123L54.1404 24.2184L51.8374 32.0122C53.8132 33.0062 55.3526 34.2304 55.3526 36.0728C55.3606 36.5554 55.2725 37.0348 55.0933 37.483C54.9142 37.9312 54.6476 38.3393 54.3092 38.6834C53.9707 39.0275 53.5671 39.3008 53.1219 39.4873C52.6768 39.6738 52.1989 39.7698 51.7162 39.7698C49.292 39.7698 47.7041 37.6849 47.6556 34.5092H37.8618V35.3456C37.8618 43.6243 43.3526 48 51.7526 48C60.1525 48 65.1707 43.6243 65.1707 36.1819C65.1707 31.1274 63.0373 28.0486 54.5647 24.4123ZM47.6435 30.2426C48.6859 30.6547 49.789 31.0789 50.8314 31.5274L53.0495 23.7578C49.8132 22.2911 48.2011 21.2487 48.2011 19.2366C48.2511 18.3886 48.635 17.5949 49.2688 17.0293C49.9026 16.4636 50.7347 16.1721 51.5829 16.2184C53.5101 16.2184 54.6616 17.2002 55.0738 19.9639H64.7707C64.7707 14.8124 62.7464 11.7336 58.6374 9.6003C56.5562 8.53395 54.2486 7.98511 51.9102 8.00031C44.8314 8.00031 38.5042 12.8488 38.5042 19.3578C38.5042 24.3517 41.3527 27.685 47.6435 30.2426ZM89.2069 22.5457C89.311 23.7226 88.9871 24.8977 88.2946 25.8551C87.6021 26.8125 86.5876 27.4881 85.4372 27.7577L90.2856 33.8183C95.4856 32.3395 98.6371 27.6244 98.6371 21.9638C98.7215 19.5133 98.0989 17.0903 96.8438 14.984C95.5886 12.8777 93.7537 11.1771 91.5583 10.0851C88.638 9.04079 85.5412 8.57955 82.4433 8.72757H80.2009V17.3699H83.013C86.7099 17.3699 89.2069 19.2487 89.2069 22.5457ZM94.3341 40.7273L92.3462 38.3031L89.0493 34.1456L84.2008 28.0244C83.7743 28.0739 83.3453 28.0982 82.916 28.0971H79.2796H79.0978V8.72757H69.2434V47.2727H79.0857V34.8243H79.3766L88.2735 47.2727H99.5098L94.3341 40.7273ZM126.467 8.72757L119.461 32.7759L118.601 35.7577L115.231 47.2727H123.643L136.54 8.72757H126.467ZM110.71 8.72757H100.649L113.498 47.2727H114.067L117.958 33.9395L110.71 8.72757Z" fill="black"/>
</g>
<defs>
<clipPath id="clip0_4577_5389">
<rect width="140.593" height="56" fill="white" transform="translate(0.928711)"/>
</clipPath>
</defs>
</svg>
