<svg width="207" height="56" viewBox="0 0 207 56" fill="none" xmlns="http://www.w3.org/2000/svg">
<path d="M75.4466 6.64887C76.8416 6.38932 78.2367 6.16221 78.5611 6.12977C78.5933 6.12656 78.626 6.12335 78.6591 6.1201C78.9602 6.09058 79.2878 6.05846 79.4047 6H79.6967V25.7905L80.1184 25.3687C80.2653 25.2218 80.5072 24.9528 80.7563 24.6757C80.8924 24.5244 81.0306 24.3707 81.1566 24.2332C81.2379 24.1446 81.3292 24.0459 81.4252 23.942C81.7511 23.5898 82.1315 23.1787 82.357 22.903C83.5899 21.5404 84.0116 21.0537 84.2387 20.7617C84.3686 20.5994 84.6283 20.2749 84.8227 20.048C85.1149 19.709 85.3735 19.4122 85.6059 19.1453C86.0186 18.6714 86.349 18.292 86.6395 17.9392L87.1262 17.3552H91.279C93.5824 17.3552 95.4317 17.3552 95.4317 17.3876C95.4317 17.4525 94.6531 18.3934 94.1989 18.8476C94.1462 18.9134 94.0616 19.0059 93.9643 19.1121C93.8219 19.2677 93.6525 19.4527 93.5176 19.6262C93.2905 19.9182 93.0309 20.2102 92.9336 20.2751C92.8362 20.34 92.6091 20.5995 92.4145 20.8591C91.7656 21.7026 89.527 24.1034 87.6129 26.0176L85.7311 27.9317L86.2502 28.4508C86.8667 29.0348 88.5213 30.8841 89.3648 31.9223C89.6568 32.3116 90.1759 32.9605 90.5003 33.3498C90.8247 33.7391 91.1167 34.1284 91.1816 34.2258C91.2157 34.2598 91.3033 34.3831 91.4211 34.5489C91.5278 34.6991 91.6592 34.8842 91.798 35.0693C92.4469 35.9777 93.55 37.5674 93.55 37.6323C93.55 37.6648 93.7447 37.9892 94.0042 38.3785C94.2638 38.7678 94.6531 39.3843 94.8477 39.7736C95.0424 40.1629 95.2695 40.5522 95.3668 40.682C95.6913 41.1686 95.821 41.4931 95.6913 41.558C95.529 41.6877 88.0022 41.6553 87.8075 41.558C87.7102 41.4931 87.6453 41.4282 87.6453 41.3633C87.6453 41.2984 87.3857 40.8767 87.0938 40.4224C87.0004 40.2669 86.9104 40.1212 86.8311 39.9929C86.6623 39.72 86.5422 39.5257 86.5422 39.4816C86.5422 39.4491 86.5098 39.3518 86.4449 39.2869C86.2827 39.1572 85.4391 37.8919 85.2769 37.5999C85.212 37.4701 84.9525 37.0808 84.6605 36.7239C84.3685 36.367 84.1414 36.0426 84.1414 36.0101C84.1414 35.783 81.3837 32.5711 80.4104 31.6627L79.794 31.1112L79.7616 36.3021C79.7587 36.6497 79.7562 36.9759 79.7538 37.282C79.7284 40.5187 79.7207 41.4987 79.6318 41.558C79.502 41.6553 73.1106 41.6553 72.916 41.5904C72.7538 41.5255 72.6889 7.10307 72.8511 7.10307C72.8613 7.10307 72.9828 7.08079 73.1879 7.04321C73.6375 6.9608 74.4885 6.80484 75.4466 6.64887Z" fill="black"/>
<path d="M126.902 6.64887C128.297 6.38932 129.692 6.16221 130.016 6.12977C130.341 6.09733 130.73 6.06489 130.892 6.06489H131.184L131.217 19.756C131.246 33.0872 131.223 33.9096 131.569 34.5235C131.609 34.5938 131.653 34.6615 131.703 34.7449C132.255 35.6208 133.423 36.2372 134.656 36.2372C134.771 36.2372 134.853 36.2229 134.901 36.2564C135.014 36.3356 134.939 36.6824 134.688 38.119C134.593 38.6534 134.486 39.289 134.395 39.834C134.331 40.2153 134.274 40.5523 134.234 40.7793C134.197 40.99 134.164 41.1912 134.137 41.3631C134.092 41.6411 134.059 41.8423 134.039 41.8824C133.942 42.1419 130.795 41.8824 129.335 41.4931C128.848 41.3633 127.648 40.8118 126.967 40.4224C125.507 39.5465 124.533 37.535 124.306 34.8746C124.209 33.5769 124.209 7.10307 124.306 7.10307C124.317 7.10307 124.438 7.08079 124.643 7.04321C125.093 6.96081 125.944 6.80484 126.902 6.64887Z" fill="black"/>
<path d="M31.6155 10.8341C31.9075 10.8016 32.6537 10.6718 33.2053 10.5745C33.6189 10.4772 34.0691 10.4164 34.3504 10.3783C34.4442 10.3657 34.5192 10.3555 34.5679 10.3474H34.8923V17.3876H43.1329L43.0681 23.1626L34.8274 23.2274L34.8923 33.1551L35.1194 33.804C35.7683 35.6857 36.5794 36.1724 38.9802 36.1075C40.2455 36.075 41.9325 35.783 42.6463 35.5235C43.0681 35.3937 43.1005 35.4262 43.1654 35.9452C43.1978 36.2372 43.3925 37.4052 43.6196 38.5732C43.9183 40.1265 44.0459 40.6408 43.8448 40.8964C43.7182 41.0572 43.4616 41.1156 43.0356 41.266C39.8562 42.369 34.8923 42.369 32.5239 41.2335C29.8311 39.9358 28.5658 37.9567 28.0792 34.3231C27.917 33.2849 27.8521 11.418 27.9819 11.418C27.9935 11.418 28.0884 11.4014 28.2442 11.374C28.5233 11.3251 28.9978 11.2418 29.5392 11.1585C30.3827 10.9963 31.3235 10.8665 31.6155 10.8341Z" fill="black"/>
<path fill-rule="evenodd" clip-rule="evenodd" d="M48.1292 18.0365C48.1617 17.777 50.3029 17.2254 52.574 16.9334C53.9366 16.7388 58.9978 16.8036 59.8737 16.9983C60.9119 17.2579 61.7555 17.5498 62.9234 18.1338C64.286 18.7827 65.6162 20.5346 66.1353 22.3839C66.1455 22.4193 66.1555 22.454 66.1653 22.488C66.6869 24.2951 66.6875 24.2972 66.7193 32.8631L66.7517 40.8118L64.7078 41.2011C61.6906 41.7851 60.2306 41.9148 56.7916 41.9148C51.8278 41.9148 49.6865 41.3308 47.8372 39.4816C46.6693 38.3136 46.0528 36.8861 45.8906 34.9071C45.5338 30.365 47.9995 27.5424 53.0606 26.6016C54.6179 26.342 58.5111 26.4069 59.8737 26.7313C60.0684 26.7962 60.0684 26.7638 60.0684 26.2771C60.0684 24.9145 59.3546 23.6492 58.284 23.0977C56.8565 22.3839 52.7362 22.4488 49.9785 23.2599C49.8205 23.2994 49.6716 23.3389 49.5399 23.3738C49.2388 23.4536 49.0278 23.5096 49.0052 23.487C48.9403 23.4221 48.0968 18.2312 48.1292 18.0365ZM59.5385 31.3127C59.3959 31.2935 59.2259 31.2706 59.0627 31.241C56.1752 30.8516 53.6122 31.4681 53.0282 32.7334C52.3144 34.1933 53.0606 35.8155 54.6828 36.3346C55.2992 36.5292 59.1924 36.6266 59.8089 36.4643L60.036 36.3995V33.9013C60.036 31.5978 60.0035 31.4032 59.8737 31.3707C59.8385 31.3531 59.7078 31.3355 59.5385 31.3127Z" fill="black"/>
<path fill-rule="evenodd" clip-rule="evenodd" d="M98.2867 22.2217C99.7142 19.6587 102.504 17.6472 105.619 16.9334C106.625 16.7063 110.323 16.8037 111.394 17.0632C117.071 18.6205 119.797 23.7465 119.018 31.3058L118.953 31.7925H111.264C103.997 31.7925 103.575 31.8249 103.575 31.9547C103.607 33.0253 104.873 34.68 106.235 35.3613C108.377 36.4319 113.405 36.2697 116.487 35.0368C116.574 35.0107 116.633 34.98 116.681 34.9927C116.81 35.0275 116.851 35.3863 117.136 37.0483C117.688 40.2278 117.72 40.5847 117.526 40.7144C117.331 40.8767 115.709 41.3957 115.092 41.5255C112.724 41.9797 111.199 42.1419 109.253 42.1419C107.176 42.1419 105.911 41.9797 104.191 41.4931C102.18 40.9091 99.4871 38.9625 98.4814 37.3403C98.0272 36.5941 97.3459 35.2315 97.2485 34.8746C97.2161 34.7124 97.0863 34.2257 96.9566 33.804C96.2428 31.2734 96.2428 27.8668 96.9566 25.4336C97.0863 25.0118 97.2161 24.5252 97.2485 24.3954C97.3134 24.1359 97.865 22.9679 98.2867 22.2217ZM110.713 23.3572C110.55 23.195 110.193 22.9679 109.934 22.8381C109.155 22.4488 106.949 22.4488 106.073 22.8706C105.003 23.4221 104.321 24.363 103.802 25.9527C103.68 26.3538 103.534 26.6019 103.602 26.7547C103.732 27.0468 104.643 26.9909 107.987 26.9909H112.4L112.335 26.5367C112.205 25.4985 111.653 24.1359 111.232 23.8114C111.189 23.7689 111.116 23.7079 111.033 23.6392C110.926 23.5504 110.804 23.4486 110.713 23.3572Z" fill="black"/>
<path d="M135.629 18.1014C135.597 17.8743 135.532 17.6472 135.499 17.5499C135.434 17.3876 135.662 17.3876 139.165 17.485H142.832L143.383 19.3991C143.675 20.4373 144.129 21.9297 144.356 22.6759C144.571 23.2941 144.786 24.0236 144.909 24.4402C144.935 24.5264 144.956 24.5993 144.973 24.655C145.07 24.9794 145.427 26.05 145.751 27.0233C146.108 27.9966 146.433 29.0024 146.498 29.2295C146.563 29.4566 146.822 30.2028 147.082 30.8516C147.341 31.5005 147.536 32.0845 147.536 32.1494C147.536 32.3116 147.828 32.9929 147.893 32.9929C147.958 32.9929 148.671 30.9165 149.061 29.6837C149.158 29.3917 149.29 28.9595 149.423 28.5274C149.511 28.2393 149.599 27.9512 149.677 27.7046C150.326 25.5634 151.234 22.4488 151.234 22.3515C151.234 22.2866 151.494 21.2808 151.818 20.1453C152.143 19.0098 152.435 17.9392 152.435 17.8094L152.467 17.5499L159.67 17.485L159.605 17.8418C159.507 18.4907 157.172 25.758 156.198 28.3859C156.137 28.5555 156.068 28.7543 156.002 28.9441C155.929 29.1539 155.86 29.3528 155.809 29.489C155.782 29.5606 155.743 29.6691 155.695 29.8023C155.568 30.1525 155.38 30.6736 155.192 31.1436C154.933 31.7925 154.738 32.3765 154.738 32.4089C154.738 32.4325 154.618 32.7303 154.453 33.1405C154.391 33.2946 154.322 33.4645 154.252 33.6418C153.992 34.2582 153.668 35.1017 153.538 35.4586C153.311 36.0426 153.019 36.7239 152.5 37.8919C152.402 38.0865 152.305 38.3136 152.273 38.4434C152.208 38.6705 151.851 39.4491 151.461 40.2602C151.332 40.5198 151.169 40.8767 151.105 41.0713C151.059 41.2092 150.883 41.5748 150.68 41.9953C150.596 42.1687 150.508 42.3514 150.423 42.5313C150.131 43.1477 149.839 43.7317 149.774 43.8614C149.745 43.9205 149.682 44.0266 149.603 44.1582C149.51 44.316 149.394 44.5105 149.288 44.705C149.093 45.0618 148.834 45.5161 148.704 45.7107C148.684 45.7405 148.662 45.774 148.638 45.8103C148.505 46.0114 148.317 46.297 148.152 46.4894C148.001 46.6653 147.831 46.8803 147.702 47.0436C147.664 47.0911 147.63 47.1342 147.601 47.1707C147.309 47.56 146.141 48.5657 145.881 48.6955C145.802 48.7154 145.686 48.7839 145.563 48.8564C145.485 48.9023 145.405 48.9498 145.33 48.9875C143.416 50.1555 139.165 50.3501 136.181 49.3768C135.402 49.1173 135.207 49.0199 135.24 48.9226C135.37 48.4684 135.629 47.2356 135.629 47.0733C135.629 46.8787 136.375 43.6019 136.44 43.537C136.473 43.537 136.829 43.6019 137.284 43.7317C140.852 44.7374 142.994 43.9263 144.162 41.1037L144.389 40.5198L144.162 40.0007C144.032 39.7087 143.675 38.93 143.351 38.2812C142.312 36.1075 141.566 34.4853 141.566 34.388C141.566 34.3231 141.404 33.9662 141.209 33.5444C140.593 32.2143 140.431 31.8249 140.366 31.5654C140.355 31.5373 140.34 31.4986 140.321 31.4513C140.233 31.2247 140.067 30.7999 139.879 30.3974C139.652 29.8783 139.36 29.1321 139.198 28.7104C139.132 28.5246 139.038 28.2738 138.935 27.9977C138.787 27.5988 138.618 27.1473 138.484 26.7638C138.371 26.4394 138.241 26.0826 138.127 25.7704C138.014 25.458 137.916 25.1903 137.868 25.0443C136.7 21.6702 135.726 18.6529 135.629 18.1014Z" fill="black"/>
<path d="M12.5388 25.1416C13.8365 23.7465 14.2908 23.3248 14.6801 23.195C15.2641 22.9679 15.7507 23.0652 16.9511 23.6492C17.3404 23.8114 17.6649 23.9412 17.6973 23.9412C17.7946 23.9412 18.9626 24.6225 19.2546 24.8496C19.3411 24.9145 19.4853 25.0082 19.6294 25.1019C19.7015 25.1488 19.7737 25.1957 19.8386 25.2389C20.6497 25.7256 21.7527 27.0233 22.3692 28.2886C23.6669 30.8841 23.3749 36.2697 21.8176 37.9243C21.7203 38.0216 21.6554 38.1514 21.6554 38.2163C21.6554 38.6056 19.7412 40.1305 18.476 40.7469C15.9129 41.9797 10.5922 42.5637 6.99099 41.9473C6.92408 41.937 6.85146 41.9259 6.7752 41.9142C6.37071 41.8523 5.86374 41.7748 5.56348 41.7202C4.16841 41.4931 1.92981 40.7469 0.56719 40.0656L0.0480957 39.806L0.112982 39.4816C0.145425 39.2869 0.372529 38.6056 0.599633 37.9567C0.655086 37.7983 0.718276 37.6205 0.784481 37.4343C0.989412 36.8577 1.22322 36.1999 1.34583 35.783C1.42737 35.552 1.5089 35.3153 1.5809 35.1063C1.68079 34.8163 1.76233 34.5796 1.80004 34.4853C1.89737 34.3231 1.96226 34.1284 1.9947 34.0311C2.05431 33.8821 2.08654 33.8973 2.51898 34.102C2.55728 34.1201 2.5987 34.1397 2.64357 34.1609C3.25999 34.4853 3.90886 34.7124 5.36881 35.1991C5.44695 35.2236 5.51987 35.2466 5.58835 35.2683C6.5151 35.5609 6.63054 35.5973 7.8994 35.7182C13.1228 36.2697 15.6209 35.3937 15.7183 32.9605C15.8156 31.1761 14.745 30.1703 11.4033 28.7753C10.138 28.2562 10.0082 27.8993 10.8193 26.926C11.0789 26.6016 11.3384 26.3096 11.4033 26.2771C11.4682 26.2447 11.9873 25.7256 12.5388 25.1416Z" fill="black"/>
<path d="M171.511 13.2997C169.435 11.0936 170.408 7.45991 173.328 6.5515C175.275 5.93507 177.546 6.90838 178.422 8.72521C178.779 9.40652 178.746 11.5802 178.389 12.3264C177.254 14.7597 173.426 15.3112 171.511 13.2997Z" fill="black"/>
<path d="M5.17406 10.6069C6.14736 10.0229 8.35351 9.34163 9.97568 9.14697C13.22 8.72521 17.7621 9.37407 20.4225 10.6069C20.682 10.7367 21.0064 10.8665 21.1362 10.8989C21.85 11.0611 21.85 11.1909 20.9415 13.4619C20.6496 14.1757 20.4225 14.7921 20.4225 14.857C20.4225 14.9868 19.7411 16.8036 19.6438 16.9009C19.6114 16.9334 19.514 16.9334 19.4167 16.8685C19.3743 16.8544 19.3011 16.8217 19.2105 16.7814C19.0932 16.7291 18.9467 16.6639 18.8003 16.6089C18.5407 16.5441 18.0541 16.3494 17.6972 16.1872C16.1399 15.5383 14.972 15.3437 12.7983 15.3437C9.35926 15.3437 8.12641 16.0574 8.12641 18.0365C8.09396 19.5613 9.13215 20.567 11.6303 21.5079C13.0254 22.027 12.636 22.6759 9.09971 26.1149C7.54243 27.6073 5.46604 27.0557 2.87057 24.4278C-0.795533 20.7293 0.145327 13.3646 4.55763 10.9638C4.71607 10.8846 4.91749 10.7624 5.07443 10.6672C5.11031 10.6454 5.14387 10.625 5.17406 10.6069Z" fill="black"/>
<path fill-rule="evenodd" clip-rule="evenodd" d="M183.743 23.3572C185.008 20.3075 188.155 17.7769 191.691 16.9658C193.962 16.4467 197.304 16.8036 199.64 17.8418C200.418 18.1987 200.71 18.3609 201.781 19.1071C202.268 19.464 203.663 20.8915 203.857 21.2484C203.903 21.3388 203.98 21.4451 204.044 21.5341C204.072 21.5728 204.097 21.6082 204.117 21.6377C204.279 21.8323 205.058 23.195 205.058 23.3247C205.058 23.3723 205.11 23.5069 205.176 23.6776C205.201 23.7398 205.227 23.8069 205.253 23.8763C206.485 26.5691 206.615 31.0787 205.577 34.2582C204.798 36.659 203.63 38.4109 201.878 39.806C201.002 40.5197 199.121 41.493 198.407 41.6553C198.298 41.6735 198.086 41.7224 197.841 41.779C197.65 41.8232 197.438 41.8721 197.239 41.9148C196.039 42.2068 192.859 42.2068 191.659 41.9148C191.205 41.785 190.653 41.6553 190.458 41.6228C190.134 41.5579 188.934 41.0064 187.96 40.4548C187.084 39.9682 184.781 37.762 184.781 37.4052C184.781 37.3727 184.619 37.0807 184.424 36.7887C182.153 33.4471 181.861 27.8019 183.743 23.3572ZM198.634 25.9202C198.018 24.3305 196.979 23.2923 195.584 22.8705C194.579 22.5461 193.119 22.7407 192.243 23.2923C188.479 25.4984 188.804 34.3555 192.729 35.8479C194.611 36.5616 197.207 35.8479 197.953 34.3555L198.375 33.512C199.283 31.6627 199.413 28.029 198.634 25.9202Z" fill="black"/>
<path d="M171.252 41.5579C171.122 41.5255 171.122 40.39 171.122 29.4565V17.3876H178.065V29.4565C178.065 40.3575 178.065 41.5255 177.935 41.5579C177.773 41.6228 171.414 41.6228 171.252 41.5579Z" fill="black"/>
<path d="M161.986 33.6203C162.066 33.5947 162.121 33.5768 162.135 33.5768C163.628 33.0902 166.126 34.1933 166.904 35.6208C168.754 39.3193 165.477 43.1152 161.551 41.8175C157.723 40.5522 157.755 34.907 161.584 33.7391C161.732 33.702 161.88 33.6543 161.986 33.6203Z" fill="black"/>
</svg>
