<svg width="164" height="56" viewBox="0 0 164 56" fill="none" xmlns="http://www.w3.org/2000/svg">
<path d="M11.3258 35.2858C11.3258 34.3389 10.5729 33.5714 9.64415 33.5714H2.07678C1.14804 33.5714 0.395142 34.3389 0.395142 35.2858V43C0.395142 43.9467 1.14804 44.7142 2.07678 44.7142H8.80332C9.73207 44.7142 10.4849 45.4819 10.4849 46.4286V53.2856C10.4849 54.2325 11.2379 55 12.1666 55H19.734C20.6627 55 21.4156 54.2325 21.4156 53.2856V45.5714C21.4156 44.6247 20.6627 43.8572 19.734 43.8572H13.0074C12.0787 43.8572 11.3258 43.0897 11.3258 42.1428V35.2858Z" fill="white"/>
<path d="M21.4156 2.71429C21.4156 1.76751 20.6627 1 19.734 1H12.1666C11.2379 1 10.4849 1.76751 10.4849 2.71429V9.57142C10.4849 10.5182 9.73207 11.2857 8.80332 11.2857H2.07678C1.14804 11.2857 0.395142 12.0532 0.395142 13V20.7143C0.395142 21.6611 1.14804 22.4286 2.07678 22.4286H9.64415C10.5729 22.4286 11.3258 21.6611 11.3258 20.7143V13.8571C11.3258 12.9104 12.0787 12.1429 13.0074 12.1429H19.734C20.6627 12.1429 21.4156 11.3753 21.4156 10.4286V2.71429Z" fill="white"/>
<path d="M34.0278 2.71429C34.0278 1.76751 34.7808 1 35.7094 1H43.277C44.2056 1 44.9584 1.76751 44.9584 2.71429V9.57142C44.9584 10.5182 45.7114 11.2857 46.64 11.2857H53.3667C54.2955 11.2857 55.0483 12.0532 55.0483 13V20.7143C55.0483 21.6611 54.2955 22.4286 53.3667 22.4286H45.7993C44.8705 22.4286 44.1177 21.6611 44.1177 20.7143V13.8571C44.1177 12.9104 43.3649 12.1429 42.436 12.1429H35.7094C34.7808 12.1429 34.0278 11.3753 34.0278 10.4286V2.71429Z" fill="white"/>
<path d="M44.1177 35.2858C44.1177 34.3389 44.8705 33.5714 45.7993 33.5714H53.3667C54.2955 33.5714 55.0483 34.3389 55.0483 35.2858V43C55.0483 43.9467 54.2955 44.7142 53.3667 44.7142H46.64C45.7114 44.7142 44.9584 45.4819 44.9584 46.4286V53.2856C44.9584 54.2325 44.2056 55 43.277 55H35.7094C34.7808 55 34.0278 54.2325 34.0278 53.2856V45.5714C34.0278 44.6247 34.7808 43.8572 35.7094 43.8572H42.436C43.3649 43.8572 44.1177 43.0897 44.1177 42.1428V35.2858Z" fill="white"/>
<path d="M19.532 28.9614C19.1462 28.3808 19.1462 27.6192 19.532 27.0386L26.3295 16.3503C26.9965 15.3465 28.447 15.3465 29.114 16.3503L35.9114 27.0386C36.2973 27.6192 36.2973 28.3808 35.9114 28.9614L29.114 39.6497C28.447 40.6534 26.9965 40.6534 26.3295 39.6497L19.532 28.9614Z" fill="white"/>
<path d="M68.2566 32.339C68.2566 29.8707 68.7475 27.6816 69.7289 25.7714C70.74 23.8616 72.108 22.3923 73.8329 21.3639C75.5578 20.3354 77.4761 19.8212 79.5876 19.8212C81.1937 19.8212 82.7252 20.1738 84.1825 20.879C85.6396 21.5549 86.7997 22.4658 87.662 23.6118V11.4049C87.662 11.2372 87.7996 11.1013 87.9693 11.1013H93.6895C93.8592 11.1013 93.9968 11.2372 93.9968 11.4049V44.3329C93.9968 44.5005 93.8592 44.6365 93.6895 44.6365H87.9693C87.7996 44.6365 87.662 44.5005 87.662 44.3329V41.0222C86.8888 42.2269 85.8033 43.1965 84.4054 43.9312C83.0077 44.6658 81.3869 45.0332 79.5429 45.0332C77.4611 45.0332 75.5578 44.5043 73.8329 43.4463C72.108 42.3886 70.74 40.9046 69.7289 38.9946C68.7475 37.0553 68.2566 34.8366 68.2566 32.339ZM87.7067 32.4271C87.7067 30.9284 87.4092 29.6503 86.8144 28.5926C86.2196 27.5053 85.4167 26.6824 84.4054 26.1241C83.3943 25.5364 82.3089 25.2427 81.149 25.2427C79.9892 25.2427 78.9185 25.5219 77.9371 26.0802C76.9557 26.6385 76.1528 27.4612 75.5281 28.5485C74.9333 29.6061 74.636 30.8697 74.636 32.339C74.636 33.8083 74.9333 35.1012 75.5281 36.2179C76.1528 37.3049 76.9557 38.1424 77.9371 38.7303C78.9482 39.3179 80.0189 39.6116 81.149 39.6116C82.3089 39.6116 83.3943 39.3325 84.4054 38.7742C85.4167 38.1865 86.2196 37.3638 86.8144 36.3059C87.4092 35.2186 87.7067 33.9257 87.7067 32.4271Z" fill="white"/>
<path d="M106.035 20.2179C106.204 20.2179 106.342 20.3538 106.342 20.5214V44.3329C106.342 44.5005 106.204 44.6365 106.035 44.6365H100.404C100.234 44.6365 100.096 44.5005 100.096 44.3329V20.5214C100.096 20.3538 100.234 20.2179 100.404 20.2179H106.035Z" fill="white"/>
<path d="M99.9207 11.4532C99.9207 11.2858 100.058 11.1502 100.227 11.1502H106.12C106.289 11.1502 106.426 11.2858 106.426 11.4532V17.275C106.426 17.4424 106.289 17.5781 106.12 17.5781H100.227C100.058 17.5781 99.9207 17.4424 99.9207 17.275V11.4532Z" fill="white"/>
<path d="M122.54 38.9726L128.716 20.4484C128.757 20.3239 128.875 20.2398 129.008 20.2398H134.991C135.205 20.2398 135.353 20.4505 135.279 20.6487L126.361 44.4601C126.317 44.5794 126.202 44.6583 126.073 44.6583H118.918C118.789 44.6583 118.674 44.5792 118.629 44.4597L109.755 20.6483C109.681 20.4501 109.83 20.2398 110.043 20.2398H116.072C116.205 20.2398 116.322 20.3239 116.364 20.4484L122.54 38.9726Z" fill="white"/>
<path d="M137.334 32.3609C137.334 29.8926 137.825 27.7035 138.806 25.7935C139.817 23.8835 141.171 22.4143 142.866 21.3858C144.591 20.3573 146.509 19.8431 148.62 19.8431C150.464 19.8431 152.07 20.2104 153.438 20.945C154.836 21.6797 155.951 22.6053 156.784 23.7219V20.5433C156.784 20.3757 156.922 20.2398 157.091 20.2398H162.767C162.937 20.2398 163.074 20.3757 163.074 20.5433V44.355C163.074 44.5226 162.937 44.6583 162.767 44.6583H157.091C156.922 44.6583 156.784 44.5226 156.784 44.355V41.0882C155.981 42.2342 154.866 43.1893 153.438 43.9532C152.04 44.6879 150.42 45.0551 148.576 45.0551C146.494 45.0551 144.591 44.5261 142.866 43.4684C141.171 42.4105 139.817 40.9267 138.806 39.0165C137.825 37.0772 137.334 34.8587 137.334 32.3609ZM156.784 32.4491C156.784 30.9505 156.487 29.6724 155.892 28.6144C155.297 27.5271 154.494 26.7045 153.483 26.1462C152.472 25.5585 151.386 25.2645 150.226 25.2645C149.067 25.2645 147.996 25.5437 147.014 26.102C146.033 26.6603 145.23 27.483 144.605 28.5703C144.011 29.6282 143.713 30.8918 143.713 32.3609C143.713 33.8301 144.011 35.1231 144.605 36.2397C145.23 37.327 146.033 38.1644 147.014 38.7521C148.026 39.3398 149.096 39.6337 150.226 39.6337C151.386 39.6337 152.472 39.3546 153.483 38.7962C154.494 38.2086 155.297 37.3857 155.892 36.328C156.487 35.2407 156.784 33.9477 156.784 32.4491Z" fill="white"/>
</svg>
