<svg width="142" height="56" viewBox="0 0 142 56" fill="none" xmlns="http://www.w3.org/2000/svg">
<g clip-path="url(#clip0_0_10)">
<path d="M136.462 43.794C136.113 43.7601 135.792 43.5918 135.566 43.3247C135.339 43.0577 135.226 42.7129 135.25 42.3637C135.24 42.0121 135.369 41.6708 135.61 41.4143C135.851 41.1577 136.183 41.0066 136.535 40.994C136.8 40.981 137.063 41.0558 137.282 41.207C137.501 41.3582 137.665 41.5772 137.747 41.8304H139.032C138.932 41.3054 138.643 40.8352 138.219 40.5092C137.757 40.1068 137.159 39.8946 136.547 39.9152C135.904 39.9152 135.287 40.1706 134.833 40.6253C134.378 41.0799 134.122 41.6965 134.122 42.3394C134.109 42.6813 134.167 43.0223 134.295 43.3398C134.422 43.6573 134.616 43.9443 134.862 44.1819C135.331 44.6434 135.961 44.9042 136.619 44.9091C137.18 44.9228 137.728 44.7419 138.17 44.3971C138.612 44.0524 138.921 43.5651 139.044 43.0182H137.759C137.654 43.2691 137.471 43.4798 137.238 43.6194C137.005 43.759 136.733 43.8202 136.462 43.794ZM141.019 40.4243C140.765 39.831 140.398 39.292 139.941 38.8364C139.48 38.3708 138.93 38.0023 138.324 37.7525C137.718 37.5027 137.069 37.3767 136.413 37.3819C135.748 37.3829 135.089 37.5146 134.474 37.7698C133.276 38.2735 132.323 39.2264 131.819 40.4243C131.564 41.0433 131.433 41.7062 131.432 42.3758C131.433 43.0414 131.564 43.7004 131.819 44.3152C132.074 44.9056 132.436 45.4439 132.886 45.903C133.339 46.3605 133.879 46.7231 134.474 46.9697C135.086 47.235 135.746 47.3712 136.413 47.3697C137.08 47.3712 137.741 47.235 138.353 46.9697C138.944 46.7234 139.48 46.3607 139.928 45.903C140.389 45.4497 140.755 44.9102 141.007 44.3152C141.262 43.7004 141.394 43.0414 141.395 42.3758C141.398 41.7071 141.27 41.0442 141.019 40.4243ZM140.013 43.8909C139.722 44.6146 139.219 45.2334 138.571 45.6661C137.922 46.0987 137.157 46.325 136.377 46.3152C135.857 46.3178 135.341 46.2147 134.862 46.0121C134.411 45.8086 134 45.5253 133.65 45.1758C133.304 44.8223 133.021 44.4124 132.813 43.9637C132.617 43.4826 132.514 42.9683 132.51 42.4485C132.514 41.9248 132.617 41.4066 132.813 40.9213C133.207 39.979 133.956 39.2299 134.898 38.8364C135.379 38.6385 135.893 38.5356 136.413 38.5334C136.927 38.5291 137.436 38.6276 137.911 38.8233C138.385 39.019 138.816 39.3079 139.177 39.6728C139.93 40.4026 140.366 41.3999 140.389 42.4485C140.359 42.9492 140.231 43.4392 140.013 43.8909ZM25.2021 11.0791C21.6967 9.36281 17.8164 8.55425 13.9173 8.72757H11.7113V17.3699H15.1052C20.7779 17.3699 24.2687 21.176 24.2687 28.0486C24.2687 34.9213 20.7294 38.6304 15.0567 38.6304H11.7113V47.2727H14.5355C26.5596 47.2727 34.0505 40.7031 34.0505 28.0002C34.099 20.1214 30.6566 14.1942 25.2021 11.0791ZM0.802246 47.2727H10.6446V38.6304V17.3699V8.72757H0.802246V47.2727ZM54.4382 24.4123L54.014 24.2184L51.711 32.0122C53.6867 33.0062 55.2261 34.2304 55.2261 36.0728C55.2341 36.5554 55.146 37.0348 54.9669 37.483C54.7877 37.9312 54.5212 38.3393 54.1827 38.6834C53.8442 39.0275 53.4406 39.3008 52.9955 39.4873C52.5503 39.6738 52.0724 39.7698 51.5898 39.7698C49.1655 39.7698 47.5777 37.6849 47.5292 34.5092H37.7353V35.3456C37.7353 43.6243 43.2262 48 51.6261 48C60.0261 48 65.0442 43.6243 65.0442 36.1819C65.0442 31.1274 62.9109 28.0486 54.4382 24.4123ZM47.5171 30.2426C48.5595 30.6547 49.6625 31.0789 50.7049 31.5274L52.9231 23.7578C49.6867 22.2911 48.0746 21.2487 48.0746 19.2366C48.1246 18.3886 48.5086 17.5949 49.1424 17.0293C49.7761 16.4636 50.6082 16.1721 51.4564 16.2184C53.3837 16.2184 54.5352 17.2002 54.9473 19.9639H64.6442C64.6442 14.8124 62.62 11.7336 58.5109 9.6003C56.4297 8.53395 54.1221 7.98511 51.7837 8.00031C44.705 8.00031 38.3777 12.8488 38.3777 19.3578C38.3777 24.3517 41.2262 27.685 47.5171 30.2426ZM89.0804 22.5457C89.1845 23.7226 88.8606 24.8977 88.1681 25.8551C87.4757 26.8125 86.4611 27.4881 85.3107 27.7577L90.1592 33.8183C95.3591 32.3395 98.5106 27.6244 98.5106 21.9638C98.595 19.5133 97.9725 17.0903 96.7173 14.984C95.4621 12.8777 93.6273 11.1771 91.4319 10.0851C88.5116 9.04079 85.4147 8.57955 82.3168 8.72757H80.0744V17.3699H82.8865C86.5834 17.3699 89.0804 19.2487 89.0804 22.5457ZM94.2076 40.7273L92.2198 38.3031L88.9228 34.1456L84.0744 28.0244C83.6479 28.0739 83.2189 28.0982 82.7895 28.0971H79.1532H78.9714V8.72757H69.1169V47.2727H78.9593V34.8243H79.2502L88.1471 47.2727H99.3833L94.2076 40.7273ZM126.341 8.72757L119.335 32.7759L118.474 35.7577L115.104 47.2727H123.516L136.413 8.72757H126.341ZM110.583 8.72757H100.523L113.371 47.2727H113.941L117.832 33.9395L110.583 8.72757Z" fill="black"/>
</g>
<defs>
<clipPath id="clip0_0_10">
<rect width="140.593" height="56" fill="white" transform="translate(0.802246)"/>
</clipPath>
</defs>
</svg>
