<svg width="209" height="56" viewBox="0 0 209 56" fill="none" xmlns="http://www.w3.org/2000/svg">
<path d="M3.66806 7C1.67717 7 0.0632324 8.61394 0.0632324 10.6048C0.0632324 12.5957 1.67717 14.2097 3.66806 14.2097H37.3507C39.3416 14.2097 40.9556 12.5957 40.9556 10.6048C40.9556 8.61394 39.3416 7 37.3507 7H3.66806Z" fill="black"/>
<path d="M8.44889 24.3952C6.458 24.3952 4.84407 26.0092 4.84407 28.0001C4.84407 29.991 6.458 31.6049 8.44889 31.6049H32.3525C34.3434 31.6049 35.9573 29.991 35.9573 28.0001C35.9573 26.0092 34.3434 24.3952 32.3525 24.3952H8.44889Z" fill="black"/>
<path d="M3.66806 41.7903C1.67717 41.7903 0.0632324 43.4043 0.0632324 45.3952C0.0632324 47.3861 1.67717 49 3.66806 49H37.3507C39.3416 49 40.9556 47.3861 40.9556 45.3952C40.9556 43.4043 39.3416 41.7903 37.3507 41.7903H3.66806Z" fill="black"/>
<path fill-rule="evenodd" clip-rule="evenodd" d="M68.0012 46.7687C70.1286 47.9214 72.5918 48.4976 75.3911 48.4976C78.1535 48.4976 80.5796 47.9214 82.6695 46.7687C84.7972 45.616 86.3465 44.0171 87.317 41.9718L82.5578 39.741C81.8862 41.0051 80.9714 41.9904 79.8142 42.6969C78.6577 43.4035 77.1456 43.7567 75.2797 43.7567C73.0025 43.7567 71.1363 43.0874 69.6808 41.7489C68.2624 40.3729 67.4228 38.3836 67.161 35.7809H87.6525C87.7274 35.3716 87.7834 34.8697 87.8206 34.2749C87.8577 33.6799 87.8763 33.0291 87.8763 32.3228C87.8763 29.8685 87.3727 27.6748 86.3651 25.7412C85.3574 23.8076 83.9016 22.2831 81.9979 21.1675C80.0946 20.052 77.78 19.4943 75.0556 19.4943C72.3681 19.4943 69.9792 20.0705 67.8892 21.2232C65.8364 22.376 64.2128 24.0492 63.0182 26.2431C61.8611 28.3999 61.2824 30.984 61.2824 33.996C61.2824 37.0079 61.8797 39.6106 63.0743 41.8046C64.2686 43.9614 65.9107 45.616 68.0012 46.7687ZM69.8488 26.0202C71.1921 24.83 72.8908 24.2352 74.9436 24.2352C76.9961 24.2352 78.6577 24.8486 79.9266 26.0759C81.1954 27.2658 81.9048 28.9761 82.0537 31.2072H67.3291C67.7023 28.939 68.5422 27.21 69.8488 26.0202Z" fill="black"/>
<path d="M109.79 24.7371V20.052H100.16V11.8529L94.1698 13.5261V20.052H88.7953V24.7371H94.1698V40.5776C94.1698 43.4406 95.0094 45.4857 96.6896 46.713C98.3689 47.9029 100.44 48.4976 102.904 48.4976C104.434 48.4976 105.815 48.2933 107.047 47.8843C108.316 47.4378 109.38 46.843 110.238 46.0993L108.894 41.7489C108.26 42.3065 107.569 42.7527 106.823 43.0874C106.114 43.3849 105.237 43.5335 104.191 43.5335C102.997 43.5335 102.027 43.2174 101.28 42.5854C100.534 41.9161 100.16 40.9123 100.16 39.5735V24.7371H109.79Z" fill="black"/>
<path d="M113.135 7.50244V47.94H119.125V33.2151C119.125 31.0583 119.498 29.348 120.245 28.0838C121.029 26.7824 122 25.8527 123.156 25.295C124.313 24.7 125.508 24.4024 126.739 24.4024C128.457 24.4024 129.875 24.9418 130.994 26.0202C132.152 27.0611 132.73 28.9761 132.73 31.7649V47.94H138.721V29.8685C138.721 27.5633 138.254 25.6483 137.321 24.1237C136.388 22.562 135.119 21.4093 133.514 20.6656C131.946 19.8847 130.173 19.4943 128.195 19.4943C126.254 19.4943 124.481 19.9033 122.876 20.7213C121.309 21.5022 120.059 22.7664 119.125 24.5142V7.50244H113.135Z" fill="black"/>
<path fill-rule="evenodd" clip-rule="evenodd" d="M169.466 12.9127C166.965 11.351 163.979 10.5701 160.508 10.5701C157.037 10.5701 154.032 11.351 151.494 12.9127C148.993 14.4373 147.052 16.6124 145.671 19.4386C144.29 22.2645 143.6 25.6295 143.6 29.534C143.6 33.4383 144.29 36.8033 145.671 39.6292C147.052 42.4554 148.993 44.6491 151.494 46.2108C154.032 47.7354 157.037 48.4976 160.508 48.4976C163.979 48.4976 166.965 47.7354 169.466 46.2108C172.004 44.6491 173.964 42.4554 175.344 39.6292C176.725 36.8033 177.416 33.4383 177.416 29.534C177.416 25.6295 176.725 22.2645 175.344 19.4386C173.964 16.6124 172.004 14.4373 169.466 12.9127ZM152.389 14.1398C154.667 12.6895 157.372 11.9647 160.508 11.9647C163.643 11.9647 166.349 12.6895 168.626 14.1398C170.94 15.5529 172.713 17.5793 173.945 20.2194C175.177 22.8221 175.793 25.927 175.793 29.534C175.793 33.1408 175.177 36.2642 173.945 38.9041C172.713 41.5071 170.94 43.5335 168.626 44.9838C166.349 46.3969 163.643 47.1031 160.508 47.1031C157.372 47.1031 154.667 46.3969 152.389 44.9838C150.113 43.5335 148.34 41.5071 147.071 38.9041C145.839 36.2642 145.224 33.1408 145.224 29.534C145.224 25.927 145.839 22.8221 147.071 20.2194C148.34 17.5793 150.113 15.5529 152.389 14.1398Z" fill="black"/>
<path d="M203.267 12.6338C200.953 11.2581 198.079 10.5701 194.645 10.5701C191.883 10.5701 189.512 11.0535 187.534 12.0204C185.594 12.9499 184.082 14.1769 183 15.7015C181.955 17.226 181.432 18.8807 181.432 20.6656C181.432 23.0825 182.197 25.0347 183.727 26.5221C185.295 27.972 187.908 29.069 191.565 29.8127L198.396 31.3187C201.643 31.9881 203.939 32.9176 205.283 34.1075C206.626 35.2602 207.298 36.7476 207.298 38.5697C207.298 40.3915 206.757 41.9532 205.674 43.2548C204.629 44.519 203.211 45.4857 201.419 46.1551C199.627 46.7873 197.612 47.1031 195.373 47.1031C191.827 47.1031 188.804 46.3597 186.303 44.8723C183.802 43.3477 182.253 41.0609 181.656 38.0118L180.2 39.0158C180.947 42.1764 182.682 44.5562 185.407 46.1551C188.132 47.7168 191.435 48.4976 195.317 48.4976C198.004 48.4976 200.356 48.0886 202.371 47.2706C204.424 46.4154 206.01 45.2441 207.13 43.7567C208.287 42.2322 208.865 40.4658 208.865 38.4579C208.865 36.1899 208.101 34.3678 206.57 32.9919C205.04 31.6162 202.465 30.5378 198.844 29.757L192.125 28.3627C188.766 27.6562 186.415 26.6893 185.071 25.4622C183.727 24.1981 183.055 22.562 183.055 20.5539C183.055 18.955 183.522 17.505 184.455 16.2034C185.389 14.902 186.713 13.8794 188.43 13.1357C190.147 12.3548 192.181 11.9647 194.533 11.9647C197.743 11.9647 200.393 12.6152 202.483 13.9165C204.61 15.181 206.104 17.1889 206.962 19.9405L208.25 18.9921C207.279 16.0919 205.618 13.9726 203.267 12.6338Z" fill="black"/>
</svg>
