<svg width="209" height="56" viewBox="0 0 209 56" fill="none" xmlns="http://www.w3.org/2000/svg">
<path d="M3.60483 7C1.61394 7 0 8.61394 0 10.6048C0 12.5957 1.61394 14.2097 3.60483 14.2097H37.2875C39.2784 14.2097 40.8923 12.5957 40.8923 10.6048C40.8923 8.61394 39.2784 7 37.2875 7H3.60483Z" fill="black"/>
<path d="M8.38566 24.3952C6.39477 24.3952 4.78083 26.0092 4.78083 28.0001C4.78083 29.991 6.39477 31.6049 8.38566 31.6049H32.2893C34.2802 31.6049 35.8941 29.991 35.8941 28.0001C35.8941 26.0092 34.2802 24.3952 32.2893 24.3952H8.38566Z" fill="black"/>
<path d="M3.60483 41.7903C1.61394 41.7903 0 43.4043 0 45.3952C0 47.3861 1.61394 49 3.60483 49H37.2875C39.2784 49 40.8923 47.3861 40.8923 45.3952C40.8923 43.4043 39.2784 41.7903 37.2875 41.7903H3.60483Z" fill="black"/>
<path fill-rule="evenodd" clip-rule="evenodd" d="M67.938 46.7687C70.0654 47.9214 72.5286 48.4976 75.3279 48.4976C78.0903 48.4976 80.5163 47.9214 82.6063 46.7687C84.734 45.616 86.2832 44.0171 87.2538 41.9718L82.4946 39.741C81.823 41.0051 80.9082 41.9904 79.751 42.6969C78.5944 43.4035 77.0823 43.7567 75.2164 43.7567C72.9393 43.7567 71.0731 43.0874 69.6176 41.7489C68.1992 40.3729 67.3596 38.3836 67.0978 35.7809H87.5893C87.6642 35.3716 87.7202 34.8697 87.7573 34.2749C87.7945 33.6799 87.8131 33.0291 87.8131 32.3228C87.8131 29.8685 87.3095 27.6748 86.3018 25.7412C85.2941 23.8076 83.8383 22.2831 81.9347 21.1675C80.0314 20.052 77.7168 19.4943 74.9924 19.4943C72.3048 19.4943 69.9159 20.0705 67.826 21.2232C65.7732 22.376 64.1496 24.0492 62.955 26.2431C61.7979 28.3999 61.2191 30.984 61.2191 33.996C61.2191 37.0079 61.8164 39.6106 63.011 41.8046C64.2053 43.9614 65.8475 45.616 67.938 46.7687ZM69.7856 26.0202C71.1288 24.83 72.8275 24.2352 74.8803 24.2352C76.9329 24.2352 78.5944 24.8486 79.8633 26.0759C81.1322 27.2658 81.8415 28.9761 81.9904 31.2072H67.2658C67.6391 28.939 68.479 27.21 69.7856 26.0202Z" fill="black"/>
<path d="M109.727 24.7371V20.052H100.097V11.8529L94.1066 13.5261V20.052H88.732V24.7371H94.1066V40.5776C94.1066 43.4406 94.9462 45.4857 96.6263 46.713C98.3056 47.9029 100.377 48.4976 102.841 48.4976C104.371 48.4976 105.752 48.2933 106.984 47.8843C108.253 47.4378 109.317 46.843 110.175 46.0993L108.831 41.7489C108.197 42.3065 107.506 42.7527 106.76 43.0874C106.051 43.3849 105.173 43.5335 104.128 43.5335C102.934 43.5335 101.963 43.2174 101.217 42.5854C100.471 41.9161 100.097 40.9123 100.097 39.5735V24.7371H109.727Z" fill="black"/>
<path d="M113.072 7.50244V47.94H119.062V33.2151C119.062 31.0583 119.435 29.348 120.182 28.0838C120.966 26.7824 121.936 25.8527 123.093 25.295C124.25 24.7 125.445 24.4024 126.676 24.4024C128.393 24.4024 129.812 24.9418 130.931 26.0202C132.088 27.0611 132.667 28.9761 132.667 31.7649V47.94H138.658V29.8685C138.658 27.5633 138.191 25.6483 137.258 24.1237C136.325 22.562 135.056 21.4093 133.451 20.6656C131.883 19.8847 130.11 19.4943 128.132 19.4943C126.191 19.4943 124.418 19.9033 122.813 20.7213C121.246 21.5022 119.995 22.7664 119.062 24.5142V7.50244H113.072Z" fill="black"/>
<path fill-rule="evenodd" clip-rule="evenodd" d="M169.403 12.9127C166.902 11.351 163.916 10.5701 160.445 10.5701C156.974 10.5701 153.969 11.351 151.431 12.9127C148.93 14.4373 146.989 16.6124 145.608 19.4386C144.227 22.2645 143.537 25.6295 143.537 29.534C143.537 33.4383 144.227 36.8033 145.608 39.6292C146.989 42.4554 148.93 44.6491 151.431 46.2108C153.969 47.7354 156.974 48.4976 160.445 48.4976C163.916 48.4976 166.902 47.7354 169.403 46.2108C171.941 44.6491 173.901 42.4554 175.281 39.6292C176.662 36.8033 177.353 33.4383 177.353 29.534C177.353 25.6295 176.662 22.2645 175.281 19.4386C173.901 16.6124 171.941 14.4373 169.403 12.9127ZM152.326 14.1398C154.603 12.6895 157.309 11.9647 160.445 11.9647C163.58 11.9647 166.286 12.6895 168.563 14.1398C170.877 15.5529 172.65 17.5793 173.882 20.2194C175.113 22.8221 175.729 25.927 175.729 29.534C175.729 33.1408 175.113 36.2642 173.882 38.9041C172.65 41.5071 170.877 43.5335 168.563 44.9838C166.286 46.3969 163.58 47.1031 160.445 47.1031C157.309 47.1031 154.603 46.3969 152.326 44.9838C150.05 43.5335 148.277 41.5071 147.008 38.9041C145.776 36.2642 145.16 33.1408 145.16 29.534C145.16 25.927 145.776 22.8221 147.008 20.2194C148.277 17.5793 150.05 15.5529 152.326 14.1398Z" fill="black"/>
<path d="M203.204 12.6338C200.89 11.2581 198.016 10.5701 194.582 10.5701C191.82 10.5701 189.449 11.0535 187.471 12.0204C185.531 12.9499 184.018 14.1769 182.936 15.7015C181.891 17.226 181.369 18.8807 181.369 20.6656C181.369 23.0825 182.134 25.0347 183.664 26.5221C185.232 27.972 187.844 29.069 191.502 29.8127L198.333 31.3187C201.58 31.9881 203.876 32.9176 205.22 34.1075C206.563 35.2602 207.235 36.7476 207.235 38.5697C207.235 40.3915 206.694 41.9532 205.611 43.2548C204.566 44.519 203.148 45.4857 201.356 46.1551C199.564 46.7873 197.549 47.1031 195.309 47.1031C191.764 47.1031 188.741 46.3597 186.239 44.8723C183.739 43.3477 182.19 41.0609 181.592 38.0118L180.137 39.0158C180.884 42.1764 182.619 44.5562 185.344 46.1551C188.068 47.7168 191.372 48.4976 195.253 48.4976C197.941 48.4976 200.292 48.0886 202.308 47.2706C204.361 46.4154 205.947 45.2441 207.067 43.7567C208.223 42.2322 208.802 40.4658 208.802 38.4579C208.802 36.1899 208.037 34.3678 206.507 32.9919C204.976 31.6162 202.401 30.5378 198.781 29.757L192.062 28.3627C188.703 27.6562 186.352 26.6893 185.008 25.4622C183.664 24.1981 182.992 22.562 182.992 20.5539C182.992 18.955 183.459 17.505 184.392 16.2034C185.325 14.902 186.65 13.8794 188.367 13.1357C190.084 12.3548 192.118 11.9647 194.47 11.9647C197.68 11.9647 200.329 12.6152 202.42 13.9165C204.547 15.181 206.041 17.1889 206.899 19.9405L208.186 18.9921C207.216 16.0919 205.555 13.9726 203.204 12.6338Z" fill="black"/>
</svg>
