<svg width="75" height="56" viewBox="0 0 75 56" fill="none" xmlns="http://www.w3.org/2000/svg">
<path fill-rule="evenodd" clip-rule="evenodd" d="M17.4372 44.811C20.7499 44.811 23.9889 43.8326 26.7476 41.9986C29.5064 40.1645 31.662 37.5565 32.9439 34.5018C34.2656 39.4432 37.0575 43.8663 40.9497 47.1851C44.8419 50.5039 49.6506 52.5618 54.7387 53.086C56.9032 53.308 57.3167 52.9306 57.3167 50.5885V40.543C57.3167 38.5811 57.9799 36.4055 61.1212 36.4055H67.1485C68.4472 36.4055 68.4999 36.3777 69.2353 35.3371C69.2353 35.3371 72.396 30.9248 73.0232 29.9869C73.6503 29.0489 73.5865 28.8047 73.0232 28C72.4599 27.1952 69.2381 22.7442 69.2381 22.7442C68.4999 21.7174 68.4389 21.6952 67.1513 21.6952H59.1232C57.8106 21.6952 57.3195 22.3945 57.3195 23.7959V31.0858C57.3195 32.8618 57.3195 34.3048 54.7387 34.3048C50.9925 34.3048 48.9612 31.4826 48.9612 28C48.9612 24.9475 51.2256 21.8201 54.7415 21.8201C57.1058 21.8201 57.3195 21.254 57.3195 20.119V4.88425C57.3195 2.88625 56.4481 2.73917 54.7387 2.914C49.6519 3.4391 44.8447 5.49704 40.9536 8.81525C37.0626 12.1335 34.2713 16.5554 32.9494 21.4954C31.4478 17.9124 28.7519 14.9598 25.3198 13.1394C21.8877 11.319 17.9313 10.743 14.1226 11.5094C10.314 12.2758 6.88821 14.3372 4.42735 17.3434C1.9665 20.3495 0.622396 24.115 0.623444 28C0.623444 32.4585 2.39459 36.7345 5.54726 39.8871C8.69992 43.0398 12.9786 44.811 17.4372 44.811ZM19.6203 33.2125C18.9258 33.4867 18.1836 33.6193 17.4372 33.6027V33.6055C15.9505 33.6055 14.5247 33.0149 13.4735 31.9637C12.4222 30.9125 11.8317 29.4867 11.8317 28C11.8317 26.5133 12.4222 25.0875 13.4735 24.0363C14.5247 22.9851 15.9505 22.3945 17.4372 22.3945C18.1836 22.3779 18.9258 22.5106 19.6203 22.7847C20.3148 23.0589 20.9474 23.469 21.4812 23.9911C22.015 24.5131 22.4391 25.1365 22.7287 25.8247C23.0182 26.5129 23.1674 27.252 23.1674 27.9986C23.1674 28.7452 23.0182 29.4843 22.7287 30.1725C22.4391 30.8607 22.015 31.4841 21.4812 32.0061C20.9474 32.5282 20.3148 32.9383 19.6203 33.2125Z" fill="black"/>
</svg>
