<svg width="266" height="56" viewBox="0 0 266 56" fill="none" xmlns="http://www.w3.org/2000/svg">
<path d="M16.1639 17.0347C16.1123 16.939 16.038 16.858 15.9475 16.7987C15.8571 16.7396 15.7536 16.7043 15.6462 16.696C15.5389 16.6875 15.4313 16.7066 15.333 16.7511C15.2348 16.7957 15.149 16.8643 15.0837 16.951C14.2411 17.7103 13.3985 18.4487 12.4992 19.1922C11.7601 19.8363 11.7549 19.962 12.3803 20.7056L24.8115 35.7868C25.3594 36.4361 25.3283 36.5618 24.7339 37.1013C22.3425 39.1958 19.9442 41.2904 17.5389 43.385C16.9547 43.9087 16.7274 43.8669 16.2208 43.2541C14.4944 41.191 12.7783 39.1173 11.0519 37.054C9.32554 34.9909 7.67145 33.0585 5.97608 31.0687L3.13319 27.7173C3.08084 27.654 3.01055 27.6086 2.93197 27.5871C2.85325 27.5657 2.76997 27.5691 2.69332 27.597C2.61667 27.625 2.55038 27.6761 2.50329 27.7435C2.45619 27.8109 2.43078 27.8913 2.43023 27.9739L2.33715 34.5824C2.33521 34.6808 2.37029 34.7764 2.43534 34.8495L2.54389 34.9856C6.93232 40.128 11.2018 45.2807 15.6005 50.4439C16.2208 51.1561 16.3965 51.1718 17.1047 50.5592C22.091 46.2442 27.0875 41.938 32.0945 37.6406C32.5493 37.2374 32.5752 36.9127 32.1874 36.4571C27.8559 31.2782 20.5213 22.1979 16.1639 17.0347Z" fill="black"/>
<path d="M16.3185 38.3861C16.373 38.4863 16.4515 38.5714 16.5466 38.6334C16.6417 38.6954 16.7505 38.7326 16.8633 38.7413C16.9762 38.7501 17.0893 38.7305 17.1927 38.6839C17.296 38.6374 17.3865 38.5657 17.4557 38.475C18.2981 37.7052 19.1976 36.9564 20.04 36.171C20.6448 35.6473 20.6551 35.443 20.1435 34.8304L7.80529 20.2257C7.28836 19.6078 7.28836 19.3512 7.91384 18.8222L14.9642 12.7007C15.6619 12.1038 15.8429 12.1194 16.427 12.8159L25.0487 23.1111L26.2944 24.593C26.3103 24.6407 26.3347 24.6852 26.3667 24.7239L29.3182 28.1957C29.3709 28.257 29.4408 28.3007 29.5186 28.321C29.5963 28.3414 29.6784 28.3374 29.7539 28.3096C29.8293 28.2819 29.8948 28.2316 29.9416 28.1655C29.9884 28.0993 30.0142 28.0204 30.016 27.9391L30.109 21.3306C30.1121 21.2313 30.079 21.1344 30.016 21.0583L29.4991 20.4404C25.2348 15.3924 21.2651 10.5433 16.9542 5.49528C16.3909 4.8407 16.3701 4.86165 15.7396 5.40102L0.749778 18.2934C0.0933644 18.859 0.0726487 19.0107 0.610153 19.6601L9.59375 30.4003L16.3185 38.3861Z" fill="black"/>
<path d="M52.0194 20.5984C55.7423 20.5984 57.7305 22.2612 57.9907 25.1202H62.2005C61.7468 20.4361 58.084 17.1174 52.0795 17.1174C46.075 17.1174 42.5389 19.4899 42.5389 23.7549C42.5389 27.6278 45.0809 29.2906 50.7651 30.3584C55.2953 31.3724 56.9632 31.9873 57.1234 34.5897C57.1234 36.9013 55.1618 38.0097 51.9861 38.0097C47.8763 38.0097 46.075 36.347 45.788 32.7038H41.5781C41.9318 38.5302 45.4344 41.4906 51.886 41.4906C57.3168 41.4906 61.3332 38.7871 61.3332 34.3937C61.173 29.5811 58.631 28.3443 51.9193 26.9587C48.2899 26.2828 46.7488 25.5595 46.7488 23.64C46.7488 21.6054 48.5168 20.5984 52.0194 20.5984Z" fill="black"/>
<path d="M66.5309 41.0318H84.0309V37.5508H70.6406V30.5553H82.8167V27.0743H70.6406V21.0858H84.0309V17.6049H66.5309V41.0318Z" fill="black"/>
<path d="M104.653 35.3068L94.4389 17.6049H89.4884V41.0318H93.4449L93.5048 23.2351L103.753 41.0318H108.663V17.6049H104.713L104.653 35.3068Z" fill="black"/>
<path d="M123.44 20.5984C127.164 20.5984 129.158 22.2612 129.412 25.1202H133.621C133.167 20.4361 129.511 17.1174 123.5 17.1174C117.489 17.1174 113.966 19.4899 113.966 23.7549C113.966 27.6278 116.502 29.2906 122.186 30.3584C126.716 31.3724 128.385 31.9873 128.545 34.5897C128.545 36.9013 126.589 38.0097 123.407 38.0097C119.297 38.0097 117.496 36.347 117.209 32.7038H112.999C113.352 38.5302 116.855 41.4906 123.313 41.4906C128.738 41.4906 132.754 38.7871 132.754 34.3937C132.594 29.5811 130.085 28.3443 123.34 26.9587C119.71 26.2828 118.169 25.5595 118.169 23.64C118.169 21.6054 119.938 20.5984 123.44 20.5984Z" fill="black"/>
<path d="M137.953 41.0318H155.459V37.5508H142.063V30.5553H154.238V27.0743H142.063V21.0858H155.459V17.6049H137.953V41.0318Z" fill="black"/>
<path d="M165.027 17.6049H160.917V41.0318H165.027V17.6049Z" fill="black"/>
<path d="M194.703 38.6863L182.4 17.6049H179.478V41.0318H181.465L181.533 19.9165L193.835 41.0318H196.758V17.6049H194.769L194.703 38.6863Z" fill="black"/>
<path d="M212.235 17.1187C205.911 17.0241 201.347 22.3232 201.414 29.3864C201.313 36.3483 205.878 41.5528 212.235 41.5528C218.56 41.6135 223.191 36.4767 223.09 29.3864C223.224 22.3841 218.553 17.0241 212.235 17.1187ZM212.235 39.7008C207.031 39.7008 203.562 35.4088 203.562 29.3864C203.562 23.3641 207.031 18.9436 212.235 18.9436C217.44 18.9436 220.942 23.2356 220.942 29.3864C220.942 35.5372 217.473 39.7008 212.235 39.7008Z" fill="black"/>
<path d="M235.133 17.6049H227.747V41.0318H234.905C241.624 41.0318 245.347 36.4761 245.347 29.3859C245.347 25.7766 244.48 22.8769 242.745 20.7613C241.01 18.6458 238.442 17.6049 235.133 17.6049ZM234.845 39.2338H229.769V19.4298H235.105C240.53 19.4298 243.231 23.0392 243.231 29.3859C243.198 35.5975 240.403 39.2136 234.845 39.2136V39.2338Z" fill="black"/>
<path d="M249.997 41.0318H265.929V39.2069H252.026V29.6765H264.582V27.8516H252.026V19.423H265.929V17.6049H249.997V41.0318Z" fill="black"/>
</svg>
