<svg width="267" height="56" viewBox="0 0 267 56" fill="none" xmlns="http://www.w3.org/2000/svg">
<path d="M16.757 17.0349C16.7053 16.9392 16.631 16.8581 16.5406 16.7989C16.4501 16.7397 16.3467 16.7044 16.2392 16.6961C16.1319 16.6877 16.0243 16.7067 15.926 16.7512C15.8278 16.7958 15.742 16.8645 15.6767 16.9512C14.8341 17.7105 13.9916 18.4488 13.0922 19.1924C12.3531 19.8365 12.348 19.9621 12.9733 20.7057L25.4045 35.7869C25.9524 36.4363 25.9213 36.562 25.3269 37.1014C22.9355 39.1959 20.5372 41.2905 18.1319 43.3852C17.5478 43.9089 17.3204 43.867 16.8139 43.2542C15.0874 41.1911 13.3713 39.1175 11.6449 37.0542C9.91856 34.991 8.26447 33.0586 6.56909 31.0688L3.7262 27.7174C3.67386 27.6542 3.60356 27.6087 3.52498 27.5872C3.44626 27.5658 3.36299 27.5692 3.28634 27.5971C3.20969 27.6252 3.1434 27.6763 3.09631 27.7437C3.04921 27.8111 3.0238 27.8914 3.02325 27.974L2.93017 34.5825C2.92823 34.681 2.96331 34.7765 3.02836 34.8496L3.13691 34.9858C7.52533 40.1281 11.7949 45.2808 16.1935 50.444C16.8139 51.1562 16.9895 51.172 17.6977 50.5593C22.684 46.2444 27.6805 41.9381 32.6875 37.6407C33.1423 37.2376 33.1683 36.9129 32.7805 36.4573C28.4489 31.2783 21.1143 22.1981 16.757 17.0349Z" fill="white"/>
<path d="M16.9115 38.3862C16.9661 38.4865 17.0445 38.5715 17.1397 38.6335C17.2347 38.6956 17.3435 38.7327 17.4563 38.7414C17.5692 38.7502 17.6823 38.7306 17.7857 38.6841C17.889 38.6375 17.9795 38.5659 18.0487 38.4751C18.8911 37.7053 19.7906 36.9565 20.633 36.1711C21.2378 35.6474 21.2482 35.4432 20.7365 34.8305L8.3983 20.2258C7.88138 19.6079 7.88138 19.3513 8.50685 18.8224L15.5573 12.7009C16.255 12.104 16.4359 12.1196 17.0201 12.816L25.6417 23.1112L26.8874 24.5931C26.9033 24.6409 26.9277 24.6853 26.9598 24.724L29.9112 28.1958C29.964 28.2572 30.0338 28.3008 30.1116 28.3211C30.1893 28.3415 30.2714 28.3375 30.3469 28.3098C30.4223 28.282 30.4878 28.2317 30.5346 28.1656C30.5814 28.0994 30.6073 28.0206 30.609 27.9392L30.702 21.3308C30.7052 21.2315 30.672 21.1345 30.609 21.0584L30.0921 20.4405C25.8279 15.3925 21.8582 10.5434 17.5472 5.49542C16.9839 4.84084 16.9632 4.86179 16.3326 5.40116L1.3428 18.2936C0.686382 18.8591 0.665666 19.0109 1.20317 19.6603L10.1868 30.4004L16.9115 38.3862Z" fill="white"/>
<path d="M52.6124 20.5985C56.3353 20.5985 58.3235 22.2613 58.5837 25.1203H62.7935C62.3399 20.4362 58.677 17.1176 52.6725 17.1176C46.668 17.1176 43.1319 19.4901 43.1319 23.755C43.1319 27.6279 45.6739 29.2907 51.3582 30.3585C55.8883 31.3725 57.5562 31.9875 57.7164 34.5898C57.7164 36.9014 55.7549 38.0098 52.5791 38.0098C48.4693 38.0098 46.668 36.3472 46.381 32.704H42.1711C42.5248 38.5303 46.0274 41.4908 52.479 41.4908C57.9099 41.4908 61.9262 38.7872 61.9262 34.3938C61.766 29.5813 59.2241 28.3444 52.5123 26.9588C48.8829 26.2829 47.3418 25.5597 47.3418 23.6401C47.3418 21.6056 49.1098 20.5985 52.6124 20.5985Z" fill="white"/>
<path d="M67.1239 41.0319H84.6239V37.551H71.2336V30.5554H83.4097V27.0745H71.2336V21.086H84.6239V17.605H67.1239V41.0319Z" fill="white"/>
<path d="M105.246 35.3069L95.032 17.605H90.0814V41.0319H94.0379L94.0978 23.2353L104.346 41.0319H109.256V17.605H105.306L105.246 35.3069Z" fill="white"/>
<path d="M124.033 20.5985C127.757 20.5985 129.751 22.2613 130.005 25.1203H134.214C133.76 20.4362 130.104 17.1176 124.093 17.1176C118.082 17.1176 114.559 19.4901 114.559 23.755C114.559 27.6279 117.095 29.2907 122.779 30.3585C127.309 31.3725 128.978 31.9875 129.138 34.5898C129.138 36.9014 127.182 38.0098 124 38.0098C119.89 38.0098 118.089 36.3472 117.802 32.704H113.592C113.945 38.5303 117.448 41.4908 123.906 41.4908C129.331 41.4908 133.347 38.7872 133.347 34.3938C133.187 29.5813 130.678 28.3444 123.933 26.9588C120.303 26.2829 118.762 25.5597 118.762 23.6401C118.762 21.6056 120.531 20.5985 124.033 20.5985Z" fill="white"/>
<path d="M138.546 41.0319H156.052V37.551H142.656V30.5554H154.831V27.0745H142.656V21.086H156.052V17.605H138.546V41.0319Z" fill="white"/>
<path d="M165.62 17.605H161.51V41.0319H165.62V17.605Z" fill="white"/>
<path d="M195.296 38.6865L182.993 17.605H180.071V41.0319H182.058L182.126 19.9166L194.428 41.0319H197.351V17.605H195.362L195.296 38.6865Z" fill="white"/>
<path d="M212.828 17.1188C206.504 17.0242 201.94 22.3233 202.007 29.3866C201.906 36.3484 206.471 41.5529 212.828 41.5529C219.153 41.6137 223.784 36.4769 223.683 29.3866C223.817 22.3842 219.146 17.0242 212.828 17.1188ZM212.828 39.7009C207.624 39.7009 204.155 35.4089 204.155 29.3866C204.155 23.3642 207.624 18.9437 212.828 18.9437C218.033 18.9437 221.535 23.2358 221.535 29.3866C221.535 35.5373 218.066 39.7009 212.828 39.7009Z" fill="white"/>
<path d="M235.726 17.605H228.34V41.0319H235.498C242.217 41.0319 245.94 36.4762 245.94 29.3861C245.94 25.7767 245.073 22.877 243.338 20.7614C241.603 18.6459 239.035 17.605 235.726 17.605ZM235.438 39.2339H230.362V19.4299H235.698C241.123 19.4299 243.824 23.0393 243.824 29.3861C243.791 35.5976 240.996 39.2138 235.438 39.2138V39.2339Z" fill="white"/>
<path d="M250.59 41.0319H266.522V39.207H252.619V29.6766H265.175V27.8517H252.619V19.4232H266.522V17.605H250.59V41.0319Z" fill="white"/>
</svg>
