<svg width="162" height="56" viewBox="0 0 162 56" fill="none" xmlns="http://www.w3.org/2000/svg">
<path d="M31.6881 4.84101C32.0205 3.8812 31.39 2.85609 30.395 2.73892L15.8373 1.02442C14.5376 0.871348 13.6402 2.31315 14.3336 3.4405L15.4722 5.29168L5.63392 11.5375C0.698272 14.6708 -0.802673 21.276 2.28146 26.2904L4.21244 29.43L22.9876 17.5107L24.0264 19.2C24.7198 20.3273 26.3887 20.1399 26.8231 18.886L31.6881 4.84101Z" fill="black"/>
<path d="M5.51822 54.9866C1.60199 48.0953 3.92606 39.2832 10.7092 35.3045L26.6574 25.9498L28.4793 29.1559C31.3893 34.2766 29.6624 40.8245 24.622 43.7809L5.51822 54.9866Z" fill="black"/>
<path d="M54.2397 36.7962C55.9494 37.897 58.02 38.4475 60.4519 38.4475C63.1488 38.4475 65.3037 37.7747 66.917 36.4293C68.5784 35.0594 69.4092 33.2125 69.4092 30.8885C69.5535 28.858 68.6868 27.0969 66.8086 25.6046C66.3511 25.2376 65.7372 24.8952 64.9667 24.5772C64.0275 24.1858 63.4015 23.941 63.0885 23.8433C62.8959 23.7699 62.1976 23.5253 60.9937 23.1093C59.0434 22.4979 57.707 21.9229 56.9846 21.3847C56.2624 20.8221 55.9011 20.0638 55.9011 19.1098C55.9011 18.1312 56.2624 17.3606 56.9846 16.798C57.707 16.2109 58.6702 15.9173 59.8741 15.9173C62.3541 15.9173 64.1239 17.116 65.1833 19.5134L68.6868 17.4585C67.8681 15.6727 66.6882 14.2906 65.1472 13.312C63.6303 12.3091 61.8726 11.8076 59.8741 11.8076C57.6108 11.8076 55.6965 12.4803 54.1315 13.8258C52.5423 15.1468 51.7476 16.9448 51.7476 19.2197C51.7476 21.4948 52.5663 23.2195 54.2037 24.3937C55.5519 25.2988 57.3217 26.0816 59.5129 26.7422C61.6558 27.4025 63.1488 28.0142 63.9915 28.5767C64.8342 29.1395 65.2555 29.9345 65.2555 30.9619C65.2555 31.9893 64.8583 32.8089 64.0636 33.4205C63.2691 34.032 62.1014 34.3378 60.5603 34.3378C57.382 34.3378 55.2872 32.8945 54.2758 30.0079L50.7002 32.1362C51.3744 34.1176 52.5543 35.671 54.2397 36.7962Z" fill="black"/>
<path d="M82.2824 23.4397V19.6235H77.8038V14.4863L73.9032 15.6605V19.6235H70.5804V23.4397H73.9032V32.2463C73.9032 34.6436 74.5532 36.2949 75.8535 37.2C77.1538 38.0806 79.2967 38.3375 82.2824 37.9705V34.4112C81.2953 34.4601 80.4645 34.4723 79.7903 34.4479C79.1402 34.3989 78.6465 34.2155 78.3094 33.8975C77.9724 33.555 77.8038 33.0046 77.8038 32.2463V23.4397H82.2824Z" fill="black"/>
<path fill-rule="evenodd" clip-rule="evenodd" d="M99.382 19.6235V22.2287C97.9132 20.1739 95.8064 19.1463 93.0615 19.1463C90.5815 19.1463 88.4625 20.076 86.7049 21.9351C84.9471 23.7944 84.0682 26.0816 84.0682 28.797C84.0682 31.5123 84.9471 33.7996 86.7049 35.6587C88.4625 37.518 90.5815 38.4475 93.0615 38.4475C95.8064 38.4475 97.9132 37.4079 99.382 35.3285V37.9705H103.283V19.6235H99.382ZM93.6755 34.668C92.0381 34.668 90.6777 34.1176 89.5942 33.0168C88.5106 31.867 87.9689 30.4604 87.9689 28.797C87.9689 27.109 88.5106 25.7148 89.5942 24.6139C90.6777 23.4886 92.0381 22.926 93.6755 22.926C95.3128 22.926 96.6732 23.4886 97.7567 24.6139C98.8402 25.7148 99.382 27.109 99.382 28.797C99.382 30.4849 98.8402 31.8916 97.7567 33.0168C96.6732 34.1176 95.3128 34.668 93.6755 34.668Z" fill="black"/>
<path fill-rule="evenodd" clip-rule="evenodd" d="M122.132 12.2846V22.2287C120.663 20.1739 118.556 19.1463 115.811 19.1463C113.331 19.1463 111.212 20.076 109.455 21.9351C107.697 23.7944 106.818 26.0816 106.818 28.797C106.818 31.5123 107.697 33.7996 109.455 35.6587C111.212 37.518 113.331 38.4475 115.811 38.4475C118.556 38.4475 120.663 37.4079 122.132 35.3285V37.9705H126.033V12.2846H122.132ZM116.425 34.668C114.788 34.668 113.427 34.1176 112.344 33.0168C111.26 31.867 110.719 30.4604 110.719 28.797C110.719 27.109 111.26 25.7148 112.344 24.6139C113.427 23.4886 114.788 22.926 116.425 22.926C118.063 22.926 119.423 23.4886 120.507 24.6139C121.59 25.7148 122.132 27.109 122.132 28.797C122.132 30.4849 121.59 31.8916 120.507 33.0168C119.423 34.1176 118.063 34.668 116.425 34.668Z" fill="black"/>
<path fill-rule="evenodd" clip-rule="evenodd" d="M133.649 30.4849H148.024C148.12 29.8733 148.168 29.3229 148.168 28.8337C148.168 26.1427 147.313 23.8555 145.604 21.9718C143.894 20.0882 141.727 19.1463 139.103 19.1463C136.286 19.1463 133.998 20.076 132.24 21.9351C130.459 23.7944 129.568 26.0816 129.568 28.797C129.568 31.5858 130.471 33.8975 132.277 35.7321C134.106 37.5423 136.478 38.4475 139.392 38.4475C142.907 38.4475 145.544 37.1144 147.301 34.4479L144.087 32.5398C143.028 34.0565 141.475 34.8148 139.428 34.8148C137.911 34.8148 136.635 34.4356 135.599 33.6773C134.588 32.919 133.938 31.8549 133.649 30.4849ZM144.231 27.2559H133.613C133.878 25.8614 134.492 24.7606 135.455 23.9534C136.418 23.146 137.622 22.7425 139.067 22.7425C140.391 22.7425 141.51 23.1339 142.426 23.9167C143.365 24.6995 143.967 25.8125 144.231 27.2559Z" fill="black"/>
<path d="M155.501 22.7057V19.6235H151.601V37.9705H155.501V28.7236C155.501 26.8399 156.055 25.4945 157.162 24.6872C158.294 23.8555 159.594 23.4886 161.063 23.5863V19.2932C158.342 19.2932 156.488 20.4307 155.501 22.7057Z" fill="black"/>
</svg>
