<svg width="161" height="56" viewBox="0 0 161 56" fill="none" xmlns="http://www.w3.org/2000/svg">
<path d="M31.0833 4.84107C31.4157 3.88126 30.7852 2.85615 29.7903 2.73898L15.2325 1.02448C13.9328 0.871409 13.0354 2.31321 13.7288 3.44056L14.8674 5.29174L5.02912 11.5375C0.0934749 14.6709 -1.40747 21.276 1.67666 26.2905L3.60764 29.43L22.3828 17.5108L23.4216 19.2C24.115 20.3273 25.7839 20.1399 26.2183 18.8861L31.0833 4.84107Z" fill="black"/>
<path d="M4.91342 54.9867C0.997192 48.0953 3.32126 39.2833 10.1044 35.3046L26.0526 25.9499L27.8745 29.156C30.7845 34.2766 29.0576 40.8246 24.0173 43.781L4.91342 54.9867Z" fill="black"/>
<path d="M53.6349 36.7963C55.3446 37.8971 57.4152 38.4475 59.8471 38.4475C62.544 38.4475 64.6989 37.7748 66.3122 36.4294C67.9736 35.0595 68.8044 33.2125 68.8044 30.8886C68.9487 28.8581 68.082 27.0969 66.2038 25.6047C65.7463 25.2376 65.1324 24.8953 64.3619 24.5773C63.4227 24.1859 62.7967 23.9411 62.4837 23.8433C62.2911 23.7699 61.5928 23.5253 60.3889 23.1094C58.4386 22.4979 57.1022 21.923 56.3798 21.3848C55.6576 20.8222 55.2963 20.0639 55.2963 19.1099C55.2963 18.1313 55.6576 17.3607 56.3798 16.798C57.1022 16.2109 58.0654 15.9174 59.2693 15.9174C61.7493 15.9174 63.5191 17.1161 64.5785 19.5135L68.082 17.4585C67.2633 15.6728 66.0834 14.2906 64.5424 13.3121C63.0255 12.3091 61.2678 11.8077 59.2693 11.8077C57.006 11.8077 55.0917 12.4804 53.5267 13.8258C51.9375 15.1468 51.1428 16.9448 51.1428 19.2198C51.1428 21.4949 51.9615 23.2195 53.5989 24.3938C54.9471 25.2989 56.7169 26.0817 58.9081 26.7422C61.051 27.4026 62.544 28.0142 63.3867 28.5768C64.2294 29.1396 64.6507 29.9346 64.6507 30.962C64.6507 31.9894 64.2535 32.8089 63.4588 33.4206C62.6643 34.032 61.4966 34.3379 59.9555 34.3379C56.7772 34.3379 54.6824 32.8945 53.671 30.008L50.0954 32.1362C50.7696 34.1176 51.9495 35.6711 53.6349 36.7963Z" fill="black"/>
<path d="M81.6776 23.4398V19.6236H77.199V14.4863L73.2984 15.6605V19.6236H69.9756V23.4398H73.2984V32.2463C73.2984 34.6437 73.9484 36.2949 75.2487 37.2C76.549 38.0806 78.6919 38.3376 81.6776 37.9705V34.4113C80.6905 34.4602 79.8597 34.4723 79.1855 34.448C78.5354 34.3989 78.0417 34.2156 77.7046 33.8976C77.3676 33.555 77.199 33.0046 77.199 32.2463V23.4398H81.6776Z" fill="black"/>
<path fill-rule="evenodd" clip-rule="evenodd" d="M98.7772 19.6236V22.2288C97.3084 20.174 95.2016 19.1464 92.4567 19.1464C89.9767 19.1464 87.8577 20.076 86.1001 21.9352C84.3423 23.7945 83.4634 26.0817 83.4634 28.797C83.4634 31.5124 84.3423 33.7996 86.1001 35.6587C87.8577 37.518 89.9767 38.4475 92.4567 38.4475C95.2016 38.4475 97.3084 37.4079 98.7772 35.3286V37.9705H102.678V19.6236H98.7772ZM93.0707 34.668C91.4333 34.668 90.0729 34.1176 88.9894 33.0168C87.9058 31.8671 87.3641 30.4605 87.3641 28.797C87.3641 27.1091 87.9058 25.7148 88.9894 24.614C90.0729 23.4886 91.4333 22.926 93.0707 22.926C94.708 22.926 96.0684 23.4886 97.1519 24.614C98.2354 25.7148 98.7772 27.1091 98.7772 28.797C98.7772 30.485 98.2354 31.8916 97.1519 33.0168C96.0684 34.1176 94.708 34.668 93.0707 34.668Z" fill="black"/>
<path fill-rule="evenodd" clip-rule="evenodd" d="M121.527 12.2847V22.2288C120.058 20.174 117.951 19.1464 115.207 19.1464C112.726 19.1464 110.608 20.076 108.85 21.9352C107.092 23.7945 106.213 26.0817 106.213 28.797C106.213 31.5124 107.092 33.7996 108.85 35.6587C110.608 37.518 112.726 38.4475 115.207 38.4475C117.951 38.4475 120.058 37.4079 121.527 35.3286V37.9705H125.428V12.2847H121.527ZM115.82 34.668C114.183 34.668 112.823 34.1176 111.739 33.0168C110.656 31.8671 110.114 30.4605 110.114 28.797C110.114 27.1091 110.656 25.7148 111.739 24.614C112.823 23.4886 114.183 22.926 115.82 22.926C117.458 22.926 118.818 23.4886 119.902 24.614C120.985 25.7148 121.527 27.1091 121.527 28.797C121.527 30.485 120.985 31.8916 119.902 33.0168C118.818 34.1176 117.458 34.668 115.82 34.668Z" fill="black"/>
<path fill-rule="evenodd" clip-rule="evenodd" d="M133.044 30.485H147.419C147.515 29.8733 147.563 29.3229 147.563 28.8337C147.563 26.1427 146.709 23.8555 144.999 21.9719C143.29 20.0882 141.122 19.1464 138.498 19.1464C135.681 19.1464 133.393 20.076 131.636 21.9352C129.854 23.7945 128.963 26.0817 128.963 28.797C128.963 31.5858 129.866 33.8976 131.672 35.7322C133.502 37.5424 135.873 38.4475 138.787 38.4475C142.302 38.4475 144.939 37.1145 146.697 34.448L143.482 32.5398C142.423 34.0566 140.87 34.8149 138.823 34.8149C137.306 34.8149 136.03 34.4356 134.995 33.6773C133.983 32.919 133.333 31.8549 133.044 30.485ZM143.627 27.2559H133.008C133.273 25.8615 133.887 24.7606 134.85 23.9535C135.813 23.1461 137.017 22.7425 138.462 22.7425C139.786 22.7425 140.906 23.1339 141.821 23.9168C142.76 24.6996 143.362 25.8126 143.627 27.2559Z" fill="black"/>
<path d="M154.896 22.7058V19.6236H150.996V37.9705H154.896V28.7236C154.896 26.84 155.45 25.4946 156.558 24.6872C157.69 23.8555 158.99 23.4886 160.458 23.5864V19.2932C157.738 19.2932 155.884 20.4307 154.896 22.7058Z" fill="black"/>
</svg>
