<svg width="191" height="56" viewBox="0 0 191 56" fill="none" xmlns="http://www.w3.org/2000/svg">
<path d="M81.2826 8.70026C82.6679 8.69256 84.2262 8.99654 85.9578 9.61222L85.2305 12.3827C83.6221 11.8132 82.3138 11.5285 81.3056 11.5285C80.4899 11.5285 79.8473 11.6901 79.3779 12.0133C78.9084 12.3365 78.6737 12.7752 78.6737 13.3293C78.6737 13.9295 78.8891 14.4067 79.3201 14.7607C79.7588 15.1147 80.5552 15.4417 81.7097 15.7419C83.4104 16.1805 84.6188 16.7886 85.3344 17.5658C86.0501 18.3355 86.4079 19.3974 86.4079 20.7519C86.4079 22.391 85.8539 23.6494 84.7457 24.5267C83.6452 25.3964 82.0714 25.8311 80.0243 25.8311C78.3543 25.8311 76.565 25.454 74.6564 24.6999L75.5107 22.0102C76.565 22.3873 77.427 22.6528 78.0965 22.8067C78.7661 22.9529 79.4009 23.0261 80.0012 23.0261C80.8709 23.0261 81.5404 22.8413 82.0098 22.4719C82.487 22.0948 82.7255 21.5753 82.7255 20.9135C82.7255 20.4903 82.6255 20.1362 82.4254 19.8515C82.2253 19.5667 81.8867 19.3128 81.4095 19.0896C80.9324 18.8588 80.2437 18.6317 79.3433 18.4085C77.8425 18.0468 76.7459 17.4851 76.0533 16.7231C75.3606 15.9613 75.0144 14.957 75.0144 13.7102C75.0144 12.1172 75.5607 10.8859 76.6536 10.0162C77.7541 9.13892 79.297 8.70026 81.2826 8.70026ZM99.1758 11.6554H94.6391V25.6695H91.026V11.6554H86.3161V8.90804H99.1758V11.6554ZM102.374 21.3637L101.012 25.6695H97.4562L102.893 8.90804H107.672L113.248 25.6695H109.75L108.33 21.3637H102.374ZM105.237 12.0018L103.182 18.6971H107.511L105.398 12.0018H105.237ZM114.83 8.90804H118.443V25.6695H114.83V8.90804ZM129.018 25.6695H124.896L118.778 16.7116L124.377 8.90804H128.452L122.703 16.6654L129.018 25.6695ZM130.495 8.90804H134.109V25.6695H130.495V8.90804ZM143.343 18.2469C142.79 17.4619 141.924 16.0652 140.746 14.0566V25.6695H137.457V8.90804H140.32L145.421 16.1921C146.068 17.1079 146.969 18.524 148.122 20.4403V8.90804H151.424V25.6695H148.539L143.343 18.2469ZM167.667 24.6306C166.782 25.0231 165.839 25.3271 164.838 25.5426C163.838 25.7503 162.857 25.8542 161.895 25.8542C159.294 25.8542 157.281 25.1116 155.858 23.6263C154.434 22.1332 153.722 20.0247 153.722 17.3003C153.722 14.5606 154.457 12.4443 155.927 10.9513C157.404 9.4506 159.491 8.70026 162.183 8.70026C163.13 8.70026 164.077 8.8157 165.024 9.04657C165.969 9.26974 166.821 9.58528 167.575 9.99315L166.512 12.5443C165.712 12.2134 165.012 11.9748 164.411 11.8286C163.811 11.6747 163.211 11.5977 162.611 11.5977C160.91 11.5977 159.621 12.0749 158.743 13.0291C157.866 13.9834 157.428 15.3841 157.428 17.2311C157.428 19.0627 157.832 20.4826 158.639 21.4907C159.455 22.4989 160.606 23.0029 162.091 23.0029C162.845 23.0029 163.584 22.899 164.307 22.6913V17.1618H167.667V24.6306ZM79.5509 37.1117H85.75V39.836H79.5509V46.9469H75.9378V30.1854H86.7197V32.8982H79.5509V37.1117ZM90.7719 42.6411L89.4098 46.9469H85.8544L91.2915 30.1854H96.0705L101.646 46.9469H98.1484L96.7285 42.6411H90.7719ZM93.6348 33.2792L91.58 39.9744H95.9089L93.7964 33.2792H93.6348ZM109.693 29.9776C110.578 29.9776 111.459 30.0931 112.336 30.324C113.221 30.5471 114.014 30.8626 114.714 31.2706L113.641 33.7755C112.979 33.46 112.367 33.2329 111.805 33.0944C111.251 32.9482 110.689 32.8751 110.12 32.8751C108.527 32.8751 107.315 33.3561 106.483 34.3181C105.66 35.2801 105.248 36.6768 105.248 38.5084C105.248 40.3708 105.66 41.783 106.483 42.745C107.315 43.6993 108.527 44.1764 110.12 44.1764C111.351 44.1764 112.636 43.8955 113.975 43.3337L114.853 45.9772C113.121 46.7468 111.386 47.1315 109.646 47.1315C107.03 47.1315 105.025 46.3967 103.632 44.9267C102.239 43.4491 101.543 41.3328 101.543 38.5777C101.543 36.8 101.866 35.2647 102.512 33.9717C103.159 32.6789 104.09 31.69 105.306 31.0051C106.53 30.3201 107.992 29.9776 109.693 29.9776ZM116.654 30.1854H120.267V46.9469H116.654V30.1854ZM134.109 46.9469H123.616V30.1854H127.067V44.1995H134.109V46.9469ZM135.725 30.1854H139.338V46.9469H135.725V30.1854ZM153.792 32.9328H149.255V46.9469H145.641V32.9328H140.932V30.1854H153.792V32.9328ZM155.397 30.1854H159.009V46.9469H155.397V30.1854ZM165.971 36.9962H172.574V39.6166H165.971V44.2803H173.521V46.9469H162.358V30.1854H173.278V32.8521H165.971V36.9962ZM181.105 29.9776C182.49 29.9699 184.049 30.274 185.78 30.8896L185.053 33.66C183.445 33.0906 182.137 32.8058 181.128 32.8058C180.313 32.8058 179.67 32.9674 179.2 33.2906C178.731 33.6139 178.496 34.0526 178.496 34.6066C178.496 35.2069 178.712 35.6841 179.143 36.0381C179.581 36.392 180.378 36.7191 181.533 37.0192C183.233 37.4579 184.442 38.066 185.157 38.8432C185.873 39.6128 186.23 40.6748 186.23 42.0292C186.23 43.6684 185.677 44.9267 184.568 45.8041C183.468 46.6737 181.894 47.1085 179.847 47.1085C178.177 47.1085 176.387 46.7314 174.479 45.9772L175.334 43.2876C176.387 43.6646 177.25 43.9301 177.919 44.084C178.588 44.2303 179.224 44.3034 179.823 44.3034C180.693 44.3034 181.362 44.1187 181.833 43.7493C182.309 43.3722 182.548 42.8527 182.548 42.1908C182.548 41.7676 182.448 41.4136 182.248 41.1288C182.048 40.8441 181.709 40.5902 181.232 40.367C180.755 40.1361 180.066 39.9091 179.166 39.6859C177.665 39.3242 176.568 38.7624 175.876 38.0005C175.184 37.2386 174.837 36.2343 174.837 34.9876C174.837 33.3945 175.384 32.1633 176.476 31.2936C177.576 30.4163 179.12 29.9776 181.105 29.9776Z" fill="white"/>
<path d="M62.2008 15.0095V11.9006L41.592 2L4.86548 9.5985V13.0522L41.2465 7.29591L62.2008 15.0095Z" fill="white"/>
<path d="M62.2008 16.3911V19.6146L38.4831 15.0092L4.86548 18.8088V15.0092L39.4043 9.71329L62.2008 16.3911Z" fill="white"/>
<path d="M62.2008 21.1113V24.4499L36.297 22.7808L4.86548 24.4499V20.4204L36.6415 17.5426L62.2008 21.1113Z" fill="white"/>
<path d="M62.2008 26.177V29.6307L33.4872 30.552L4.86548 29.6307V26.177L34.1084 25.3713L62.2008 26.177Z" fill="white"/>
<path d="M62.2008 31.4718V34.9662L30.7422 38.644L4.86548 34.5979V31.4721L31.0179 33.4029L62.2008 31.4718Z" fill="white"/>
<path d="M62.2008 37.0807V40.6668L28.0753 46.276L4.86548 39.5637V36.2538L28.3511 41.2654L62.2008 37.0807Z" fill="white"/>
<path d="M4.86548 40.7596V43.8853L25.5928 54L62.2008 46.2757V42.6895L25.8684 48.7586L4.86548 40.7596Z" fill="white"/>
</svg>
