<svg width="190" height="54" viewBox="0 0 190 54" fill="none" xmlns="http://www.w3.org/2000/svg">
<path d="M80.8755 7.70026C82.2607 7.69256 83.8191 7.99654 85.5507 8.61222L84.8234 11.3827C83.215 10.8132 81.9067 10.5285 80.8985 10.5285C80.0828 10.5285 79.4402 10.6901 78.9708 11.0133C78.5013 11.3365 78.2666 11.7752 78.2666 12.3293C78.2666 12.9295 78.482 13.4067 78.913 13.7607C79.3517 14.1147 80.1481 14.4417 81.3026 14.7419C83.0033 15.1805 84.2116 15.7886 84.9273 16.5658C85.643 17.3355 86.0008 18.3974 86.0008 19.7519C86.0008 21.391 85.4468 22.6494 84.3386 23.5267C83.2381 24.3964 81.6643 24.8311 79.6172 24.8311C77.9472 24.8311 76.1579 24.454 74.2493 23.6999L75.1036 21.0102C76.1579 21.3873 77.0199 21.6528 77.6894 21.8067C78.3589 21.9529 78.9938 22.0261 79.5941 22.0261C80.4638 22.0261 81.1333 21.8413 81.6027 21.4719C82.0799 21.0948 82.3184 20.5753 82.3184 19.9135C82.3184 19.4903 82.2184 19.1362 82.0183 18.8515C81.8182 18.5667 81.4796 18.3128 81.0024 18.0896C80.5253 17.8588 79.8365 17.6317 78.9362 17.4085C77.4354 17.0468 76.3388 16.4851 75.6462 15.7231C74.9535 14.9613 74.6073 13.957 74.6073 12.7102C74.6073 11.1172 75.1536 9.88587 76.2465 9.01624C77.347 8.13892 78.8899 7.70026 80.8755 7.70026ZM98.7687 10.6554H94.232V24.6695H90.6189V10.6554H85.909V7.90804H98.7687V10.6554ZM101.967 20.3637L100.605 24.6695H97.0491L102.486 7.90804H107.265L112.841 24.6695H109.343L107.923 20.3637H101.967ZM104.83 11.0018L102.775 17.6971H107.104L104.991 11.0018H104.83ZM114.423 7.90804H118.036V24.6695H114.423V7.90804ZM128.611 24.6695H124.489L118.371 15.7116L123.97 7.90804H128.044L122.296 15.6654L128.611 24.6695ZM130.088 7.90804H133.702V24.6695H130.088V7.90804ZM142.936 17.2469C142.383 16.4619 141.517 15.0652 140.339 13.0566V24.6695H137.05V7.90804H139.912L145.014 15.1921C145.661 16.1079 146.562 17.524 147.715 19.4403V7.90804H151.017V24.6695H148.131L142.936 17.2469ZM167.26 23.6306C166.374 24.0231 165.432 24.3271 164.431 24.5426C163.431 24.7503 162.45 24.8542 161.488 24.8542C158.887 24.8542 156.874 24.1116 155.451 22.6263C154.026 21.1332 153.315 19.0247 153.315 16.3003C153.315 13.5606 154.05 11.4443 155.519 9.95128C156.997 8.4506 159.083 7.70026 161.776 7.70026C162.723 7.70026 163.67 7.8157 164.617 8.04657C165.562 8.26974 166.413 8.58528 167.168 8.99315L166.105 11.5443C165.305 11.2134 164.605 10.9748 164.004 10.8286C163.404 10.6747 162.803 10.5977 162.204 10.5977C160.503 10.5977 159.213 11.0749 158.336 12.0291C157.459 12.9834 157.021 14.3841 157.021 16.2311C157.021 18.0627 157.425 19.4826 158.232 20.4907C159.048 21.4989 160.199 22.0029 161.684 22.0029C162.438 22.0029 163.177 21.899 163.9 21.6913V16.1618H167.26V23.6306ZM79.1438 36.1117H85.3429V38.836H79.1438V45.9469H75.5307V29.1854H86.3126V31.8982H79.1438V36.1117ZM90.3648 41.6411L89.0027 45.9469H85.4473L90.8843 29.1854H95.6634L101.239 45.9469H97.7413L96.3214 41.6411H90.3648ZM93.2277 32.2792L91.1729 38.9744H95.5018L93.3893 32.2792H93.2277ZM109.285 28.9776C110.171 28.9776 111.052 29.0931 111.929 29.324C112.814 29.5471 113.607 29.8626 114.307 30.2706L113.233 32.7755C112.572 32.46 111.96 32.2329 111.398 32.0944C110.844 31.9482 110.282 31.8751 109.713 31.8751C108.119 31.8751 106.908 32.3561 106.076 33.3181C105.253 34.2801 104.841 35.6768 104.841 37.5084C104.841 39.3708 105.253 40.783 106.076 41.745C106.908 42.6993 108.119 43.1764 109.713 43.1764C110.944 43.1764 112.229 42.8955 113.568 42.3337L114.445 44.9772C112.714 45.7468 110.979 46.1315 109.239 46.1315C106.623 46.1315 104.618 45.3967 103.225 43.9267C101.832 42.4491 101.136 40.3328 101.136 37.5777C101.136 35.8 101.459 34.2647 102.105 32.9717C102.752 31.6789 103.683 30.69 104.899 30.0051C106.122 29.3201 107.585 28.9776 109.285 28.9776ZM116.247 29.1854H119.86V45.9469H116.247V29.1854ZM133.702 45.9469H123.209V29.1854H126.66V43.1995H133.702V45.9469ZM135.318 29.1854H138.931V45.9469H135.318V29.1854ZM153.385 31.9328H148.848V45.9469H145.234V31.9328H140.525V29.1854H153.385V31.9328ZM154.99 29.1854H158.602V45.9469H154.99V29.1854ZM165.564 35.9962H172.167V38.6166H165.564V43.2803H173.113V45.9469H161.951V29.1854H172.871V31.8521H165.564V35.9962ZM180.698 28.9776C182.083 28.9699 183.642 29.274 185.373 29.8896L184.646 32.66C183.038 32.0906 181.73 31.8058 180.721 31.8058C179.906 31.8058 179.263 31.9674 178.793 32.2906C178.324 32.6139 178.089 33.0526 178.089 33.6066C178.089 34.2069 178.305 34.6841 178.735 35.0381C179.174 35.392 179.971 35.7191 181.126 36.0192C182.825 36.4579 184.035 37.066 184.75 37.8432C185.466 38.6128 185.823 39.6748 185.823 41.0292C185.823 42.6684 185.27 43.9267 184.161 44.8041C183.061 45.6737 181.487 46.1085 179.44 46.1085C177.77 46.1085 175.98 45.7314 174.072 44.9772L174.927 42.2876C175.98 42.6646 176.843 42.9301 177.512 43.084C178.181 43.2303 178.817 43.3034 179.416 43.3034C180.286 43.3034 180.955 43.1187 181.426 42.7493C181.902 42.3722 182.141 41.8527 182.141 41.1908C182.141 40.7676 182.041 40.4136 181.841 40.1288C181.641 39.8441 181.302 39.5902 180.825 39.367C180.348 39.1361 179.659 38.9091 178.759 38.6859C177.258 38.3242 176.161 37.7624 175.469 37.0005C174.777 36.2386 174.43 35.2343 174.43 33.9876C174.43 32.3945 174.976 31.1633 176.069 30.2936C177.169 29.4163 178.713 28.9776 180.698 28.9776Z" fill="white"/>
<path d="M61.7937 14.0095V10.9006L41.1849 1L4.45837 8.5985V12.0522L40.8394 6.29591L61.7937 14.0095Z" fill="white"/>
<path d="M61.7937 15.3911V18.6146L38.076 14.0092L4.45837 17.8088V14.0092L38.9972 8.71329L61.7937 15.3911Z" fill="white"/>
<path d="M61.7937 20.1113V23.4499L35.8899 21.7808L4.45837 23.4499V19.4204L36.2344 16.5426L61.7937 20.1113Z" fill="white"/>
<path d="M61.7937 25.177V28.6307L33.0801 29.552L4.45837 28.6307V25.177L33.7013 24.3713L61.7937 25.177Z" fill="white"/>
<path d="M61.7937 30.4718V33.9662L30.3351 37.644L4.45837 33.5979V30.4721L30.6107 32.4029L61.7937 30.4718Z" fill="white"/>
<path d="M61.7937 36.0807V39.6668L27.6682 45.276L4.45837 38.5637V35.2538L27.944 40.2654L61.7937 36.0807Z" fill="white"/>
<path d="M4.45837 39.7596V42.8853L25.1857 53L61.7937 45.2757V41.6895L25.4613 47.7586L4.45837 39.7596Z" fill="white"/>
</svg>
