<svg width="280" height="260" viewBox="0 0 280 260" fill="none" xmlns="http://www.w3.org/2000/svg">
<circle cx="74" cy="168" r="32" fill="#FFF5E5"/>
<circle cx="42" cy="228" r="21" fill="#FF6161"/>
<path d="M280 157C280 200.63 244.63 236 201 236C157.37 236 122 200.63 122 157C122 113.37 157.37 78 201 78C244.63 78 280 113.37 280 157Z" fill="#FFF5E5"/>
<circle cx="232.5" cy="236.5" r="13.5" fill="#FF6161"/>
<circle cx="229" cy="178" r="9" fill="#FFC05C"/>
<circle cx="154" cy="57" r="10" fill="#FFCD80"/>
<circle cx="178" cy="40" r="6" fill="#FF6161"/>
<circle cx="58" cy="196" r="6" fill="#FF6161"/>
<circle cx="36" cy="178" r="6" fill="#FFE5BB"/>
<circle cx="58" cy="62" r="54" fill="#FFF5E5"/>
<circle cx="131" cy="145" r="70" fill="#FF6161"/>
<path opacity="0.4" d="M131.351 120C131.351 120 128.371 122.386 125.303 124.773C122.148 124.685 116.013 125.392 112.683 126.629C109.616 124.596 106.899 122.475 106.899 122.475C106.899 122.475 104.62 126.452 103.13 128.839C100.939 129.988 98.836 131.314 96.9079 132.993C94.6292 132.109 92.0876 131.048 92 130.96C94.9798 136.97 96.9955 142.981 102.342 146.605C111.018 132.905 151.07 134.142 159.834 146.516C165.53 143.511 167.721 137.059 170 131.137C169.737 131.225 166.67 132.286 164.742 132.993C163.602 131.667 160.798 129.723 159.22 128.75C157.73 126.01 155.539 122.21 155.539 122.21C155.539 122.21 152.998 124.154 149.93 126.276C145.899 125.48 140.991 124.596 136.872 124.861C134.155 122.563 131.351 120 131.351 120Z" fill="white"/>
<path opacity="0.7" d="M95.0674 143.776C95.0674 143.776 99.2742 154.029 102.166 161.189C114.524 177.629 146.074 178.778 159.834 161.542C163.076 154.118 167.458 143.776 167.458 143.776C163.953 149.079 158.169 152.703 154.663 154.648C152.121 156.062 146.337 156.858 146.337 156.858L131.088 148.903L115.751 156.681C115.751 156.681 110.054 155.797 107.425 154.56C102.254 151.643 98.7483 148.284 95.0674 143.776Z" fill="white"/>
</svg>
