<svg width="280" height="260" viewBox="0 0 280 260" fill="none" xmlns="http://www.w3.org/2000/svg">
<circle cx="137" cy="130" r="124" stroke="#FFECCE" stroke-width="2" stroke-linecap="round" stroke-dasharray="10 10"/>
<circle opacity="0.1" cx="137" cy="130" r="84" stroke="#FF9C00" stroke-width="3" stroke-linecap="round" stroke-dasharray="10 10"/>
<circle cx="137" cy="130" r="53" fill="#FFF5E5"/>
<circle cx="244" cy="187" r="17" fill="#FF9C00"/>
<circle cx="37" cy="58" r="14" fill="#FFE5BB"/>
<circle cx="67" cy="86" r="6" fill="#FF9C00"/>
<circle cx="137" cy="153" r="9" fill="#FF9C00"/>
<circle cx="210" cy="30" r="7" fill="#FF9C00"/>
<circle cx="190" cy="196" r="9" fill="#FFE5BB"/>
<circle cx="37" cy="198" r="7" fill="#FF9C00"/>
<rect x="110.761" y="70" width="62" height="112" rx="8" transform="rotate(5 110.761 70)" fill="#FF9C00"/>
<rect opacity="0.7" x="109.89" y="79.9619" width="62" height="92" transform="rotate(5 109.89 79.9619)" fill="white"/>
<rect opacity="0.8" x="134.234" y="77.0728" width="14" height="2" rx="1" transform="rotate(5 134.234 77.0728)" fill="white"/>
<circle opacity="0.2" cx="136.763" cy="128.489" r="17" transform="rotate(5 136.763 128.489)" fill="#FF9C00"/>
<circle opacity="0.2" cx="136.763" cy="128.489" r="11" transform="rotate(5 136.763 128.489)" fill="#FF9C00"/>
<circle cx="136.763" cy="128.489" r="6" fill="#FF9C00"/>
</svg>
