<svg width="280" height="260" viewBox="0 0 280 260" fill="none" xmlns="http://www.w3.org/2000/svg">
<circle opacity="0.8" cx="27" cy="191" r="9" fill="#FF6161"/>
<circle cx="138" cy="251" r="9" fill="#FFE5BB"/>
<circle opacity="0.8" cx="254" cy="67" r="9" fill="#FF6161"/>
<circle cx="245" cy="198" r="6" fill="#FFE5BB"/>
<circle cx="268" cy="128" r="9" fill="#FFE5BB"/>
<circle opacity="0.8" cx="152" cy="23" r="9" fill="#FFE5BB"/>
<circle cx="235.5" cy="107.5" r="12.5" fill="#FFF5E5"/>
<circle cx="13.5" cy="155.5" r="12.5" fill="#FFE5BB"/>
<circle cx="86.5" cy="92.5" r="52.5" fill="#FFF5E5"/>
<path opacity="0.3" d="M223 143C223 174.48 197.48 200 166 200C134.52 200 109 174.48 109 143C109 111.52 134.52 86 166 86C197.48 86 223 111.52 223 143Z" stroke="#FF6161" stroke-width="2" stroke-linecap="round" stroke-linejoin="round" stroke-dasharray="6 10"/>
<path opacity="0.5" d="M166 210C128.997 210 99 180.003 99 143C99 105.997 128.997 76 166 76" stroke="#FF6161" stroke-width="2" stroke-linecap="round" stroke-linejoin="round" stroke-dasharray="6 10"/>
<path d="M149.679 187.089C154.763 188.972 160.261 190 166 190C191.957 190 213 168.957 213 143C213 122.751 200.195 105.493 182.241 98.8816L179.301 107.393C193.728 112.784 204 126.692 204 143C204 163.987 186.987 181 166 181C161.423 181 157.035 180.191 152.972 178.708L149.679 187.089Z" fill="#FF6161"/>
<path d="M198 143C198 160.673 183.673 175 166 175C164.963 175 163.938 174.951 162.926 174.854L163.791 165.895C164.518 165.965 165.255 166 166 166C178.703 166 189 155.703 189 143C189 130.297 178.703 120 166 120C153.297 120 143 130.297 143 143H134C134 125.327 148.327 111 166 111C183.673 111 198 125.327 198 143Z" fill="#FFF3E0"/>
<circle opacity="0.2" cx="166" cy="143" r="10" stroke="#FF6161" stroke-width="4"/>
<circle cx="166" cy="143" r="4" fill="#FF6161"/>
<path fill-rule="evenodd" clip-rule="evenodd" d="M166 195C137.281 195 114 171.719 114 143C114 114.281 137.281 91.0001 166 91.0001C168.272 91.0001 170.511 91.1458 172.706 91.4285L173.889 82.5056C171.307 82.172 168.673 82.0001 166 82.0001C132.311 82.0001 105 109.311 105 143C105 176.689 132.311 204 166 204V195Z" fill="#FF6161"/>
<path opacity="0.3" d="M98 181C98 194.255 87.2548 205 74 205C60.7452 205 50 194.255 50 181C50 167.745 60.7452 157 74 157C87.2548 157 98 167.745 98 181Z" stroke="#FF6161" stroke-width="2" stroke-linecap="round" stroke-dasharray="6 6"/>
<path d="M74 195C81.732 195 88 188.732 88 181C88 173.268 81.732 167 74 167V181L62.6069 189.138C65.1465 192.687 69.3031 195 74 195Z" fill="#FF6161"/>
<circle cx="193.5" cy="62.5" r="9.5" stroke="#FFECCC" stroke-width="2" stroke-linecap="round" stroke-dasharray="3 6"/>
<circle cx="193.5" cy="62.5" r="4.5" fill="#FF6161"/>
</svg>
