<svg width="32" height="32" viewBox="0 0 32 32" fill="none" xmlns="http://www.w3.org/2000/svg">
<path fill-rule="evenodd" clip-rule="evenodd" d="M16.0275 18H5.5C2.46243 18 0 20.4624 0 23.5C0 26.5376 2.46243 29 5.5 29H18.5C20.1919 29 21.7054 28.2361 22.7143 27.0343C21.6702 26.2102 21 24.9334 21 23.5V23H20.5C18.0147 23 16 20.9853 16 18.5C16 18.331 16.0093 18.1642 16.0275 18ZM19.0752 18.0297C19.0264 18.1776 19 18.3357 19 18.5C19 19.3284 19.6716 20 20.5 20H22.7428C21.8488 18.9174 20.5484 18.1828 19.0752 18.0297Z" fill="#4360DF"/>
<path fill-rule="evenodd" clip-rule="evenodd" d="M24 23.5C24 24.3284 24.6716 25 25.5 25C26.3284 25 27 24.3284 27 23.5V20H30.5C31.3284 20 32 19.3284 32 18.5C32 17.6716 31.3284 17 30.5 17H27V13.5C27 12.6716 26.3284 12 25.5 12C24.6716 12 24 12.6716 24 13.5V17H20.5C19.6716 17 19 17.6716 19 18.5C19 19.3284 19.6716 20 20.5 20H24V23.5Z" fill="#A8B6F0"/>
<circle cx="13" cy="8" r="5" fill="#4360DF"/>
</svg>
