<svg width="32" height="32" viewBox="0 0 32 32" fill="none" xmlns="http://www.w3.org/2000/svg">
<path fill-rule="evenodd" clip-rule="evenodd" d="M15.9511 1C7.14373 1 0 7.88399 0 16.3711C0 23.1608 4.59939 28.9132 10.8624 30.9878C11.6453 31.0821 11.9388 30.6106 11.9388 30.2334C11.9388 29.8562 11.9388 28.9132 11.9388 27.593C7.53517 28.536 6.55657 25.5183 6.55657 25.5183C5.87156 23.7266 4.79511 23.2551 4.79511 23.2551C3.32722 22.3121 4.89297 22.3121 4.89297 22.3121C6.45872 22.4064 7.33945 23.9152 7.33945 23.9152C8.80734 26.2727 11.0581 25.6126 11.9388 25.2354C12.0367 24.1981 12.526 23.538 12.9174 23.1608C9.39449 22.7836 5.67584 21.4634 5.67584 15.5224C5.67584 13.825 6.263 12.5048 7.33945 11.3731C7.24159 11.0902 6.65443 9.48711 7.53517 7.41249C7.53517 7.41249 8.9052 7.03528 11.9388 9.01561C13.211 8.6384 14.581 8.5441 15.9511 8.5441C17.3211 8.5441 18.6911 8.7327 19.9633 9.01561C22.9969 7.03528 24.367 7.41249 24.367 7.41249C25.2477 9.48711 24.6605 11.0902 24.5627 11.4674C25.5413 12.5048 26.2263 13.9193 26.2263 15.6167C26.2263 21.5577 22.5076 22.7836 18.9847 23.1608C19.5719 23.6323 20.0612 24.5753 20.0612 25.9898C20.0612 28.0645 20.0612 29.6676 20.0612 30.2334C20.0612 30.6106 20.3547 31.0821 21.1376 30.9878C27.4985 28.9132 32 23.1608 32 16.3711C31.9021 7.88399 24.7584 1 15.9511 1Z" fill="white"/>
</svg>
