<svg width="56" height="56" viewBox="0 0 56 56" fill="none" xmlns="http://www.w3.org/2000/svg">
<path opacity="0.1" fill-rule="evenodd" clip-rule="evenodd" d="M28 0C12.536 0 0 12.5362 0 28C0 43.464 12.536 56 28 56C43.464 56 56 43.464 56 28C56 12.5362 43.464 0 28 0Z" fill="white"/>
<path fill-rule="evenodd" clip-rule="evenodd" d="M28.1026 26.7728C29.5118 26.9192 30.9209 27.0655 32.6536 26.9691C37.3482 26.708 40.1917 24.3042 39.99 20.7111C39.7842 17.0553 36.0013 14.8031 32.2159 15.0136C26.0472 15.3566 21.5108 20.7597 21 26.9353C21.8377 26.7395 22.7195 26.6226 23.5511 26.5764C25.284 26.4801 26.6934 26.6265 28.1026 26.7728ZM16.0096 34.7648C16.2044 38.1161 19.7884 40.1806 23.3746 39.9876C29.2185 39.6731 33.5162 34.7202 34 29.0592C33.2063 29.2388 32.3711 29.346 31.5833 29.3883C29.9419 29.4766 28.6067 29.3424 27.2715 29.2083C25.9363 29.0741 24.6011 28.94 22.9595 29.0283C18.5125 29.2677 15.8182 31.4711 16.0096 34.7648Z" fill="white"/>
</svg>
